<?xml version="1.0" encoding="utf-8"?>
<!-- Generator: Adobe Illustrator 16.0.0, SVG Export Plug-In . SVG Version: 6.00 Build 0)  -->
<!DOCTYPE svg PUBLIC "-//W3C//DTD SVG 1.1//EN" "http://www.w3.org/Graphics/SVG/1.1/DTD/svg11.dtd">
<svg version="1.1" xmlns="http://www.w3.org/2000/svg" xmlns:xlink="http://www.w3.org/1999/xlink" x="0px" y="0px"
	 width="55.479px" height="59.955px" viewBox="0 0 55.479 59.955" enable-background="new 0 0 55.479 59.955" xml:space="preserve">
<g fill="#ffffff">
	<defs>
		<rect y="0" width="55.479" height="59.955"/>
	</defs>
	<path d="M52.348,12.17h-6.96c0.462-0.668,0.827-1.408,1.066-2.21c0.59-1.984,0.372-4.078-0.613-5.898
		c-0.984-1.819-2.618-3.147-4.603-3.737c-1.982-0.59-4.078-0.373-5.897,0.612c-3.608,1.954-6.168,6.11-7.601,9.011
		c-1.433-2.901-3.993-7.056-7.601-9.011c-3.758-2.032-8.468-0.629-10.5,3.125c-1.437,2.654-1.153,5.781,0.459,8.108H3.133
		C1.405,12.17,0,13.575,0,15.302v9.381c0,1.727,1.405,3.131,3.133,3.131h0.83v26.11c0,3.325,2.705,6.03,6.031,6.03h35.491
		c3.323,0,6.029-2.705,6.029-6.03v-26.11h0.834c1.727,0,3.13-1.404,3.13-3.13v-9.382C55.479,13.575,54.074,12.17,52.348,12.17
		 M36.483,3.048c1.256-0.68,2.7-0.83,4.07-0.423c1.368,0.408,2.496,1.323,3.175,2.58c0.682,1.256,0.831,2.702,0.425,4.071
		c-0.358,1.204-1.128,2.202-2.159,2.894H29.354C30.483,9.645,32.959,4.957,36.483,3.048 M11.749,5.206
		c1.402-2.592,4.653-3.56,7.248-2.157c3.524,1.909,5.999,6.596,7.129,9.122H13.487C11.227,10.651,10.428,7.646,11.749,5.206
		 M26.54,41.486H6.363V27.814H26.54V41.486z M6.363,53.924V43.885H26.54v13.67H9.994C7.992,57.555,6.363,55.926,6.363,53.924
		 M45.485,57.555H28.939v-13.67h20.175v10.039C49.114,55.926,47.486,57.555,45.485,57.555 M49.114,41.486H28.939V27.814h20.175
		V41.486z M53.079,24.685c0,0.403-0.328,0.731-0.731,0.731h-2.03c-0.001,0-0.002-0.001-0.003-0.001s-0.003,0.001-0.004,0.001H27.743
		c-0.001,0-0.002-0.001-0.003-0.001c-0.001,0-0.002,0.001-0.003,0.001H5.166c-0.001,0-0.002-0.001-0.003-0.001
		s-0.002,0.001-0.003,0.001H3.133c-0.404,0-0.733-0.328-0.733-0.731v-9.382c0-0.397,0.335-0.732,0.733-0.732h49.215
		c0.396,0,0.731,0.334,0.731,0.732V24.685z"/>
</g>
</svg>
