<?xml version="1.0" encoding="utf-8"?>
<!DOCTYPE svg PUBLIC "-//W3C//DTD SVG 1.1//EN" "http://www.w3.org/Graphics/SVG/1.1/DTD/svg11.dtd">
<svg version="1.1" xmlns="http://www.w3.org/2000/svg" xmlns:xlink="http://www.w3.org/1999/xlink" x="0px" y="0px" width="191px" height="38px" viewBox="0 0 191 38" enable-background="new 0 0 191 38" xml:space="preserve">
  <g>
    <path fill="#FDC305" d="M6.07,20.917l0.053-2.267c6.667-0.909,13.437-1.369,20.165-1.331
		c-0.01,0.606-0.028,1.213-0.058,1.821c0,0,2.922-1.349,6.036-1.814c-2.367-6.323-8.463-10.825-15.613-10.825
		c-8.323,0-15.221,6.102-16.466,14.076C2.359,20.714,6.07,20.917,6.07,20.917" />
    <path fill="#FDC305" d="M27.238,24.421c-1.16,1.283-1.391,1.199-1.391,3.455
		c0,0.908,0.027,4.898,0.036,9.173c4.482-2.987,7.437-8.089,7.437-13.879c0-1.053-0.099-2.081-0.285-3.079
		C31.221,21.154,28.223,23.329,27.238,24.421" />
    <path fill="#FDC305" d="M6.358,25.908c0,0-3.792-1.44-5.184-1.824C0.748,23.966,0.37,23.858,0,23.801
		c0.225,6.049,3.673,11.273,8.677,14.006L6.358,25.908z" />
    <path fill="#F06351" d="M26.295,17.314c0.145-8.48-1.402-16.467-1.402-16.467s-0.144-1.296-0.864-0.241
		c-0.72,1.057-1.2,3.937-1.2,3.937C15.389,4.11,10.061,4.878,10.061,4.878c-0.816-2.735-2.208-3.936-2.88-3.647
		C6.509,1.52,6.46,4.543,6.46,4.543L6.129,18.646C12.795,17.736,19.566,17.276,26.295,17.314" />
    <path d="M12.413,14.191c-0.046-0.091,1.022,0.681,1.406,0.921c0.384,0.24,0.61,0.423,0.61,0.591
		s-0.264,0.336-0.624,0.336c-0.36,0-0.912-0.12-0.96-0.264c0,0,0.6-0.024,0.936-0.024h0.288
		C14.069,15.751,12.677,14.719,12.413,14.191" />
    <path d="M19.886,14.304c0,0-1.047,1.274-1.086,1.333s-0.165,0.341,0.185,0.292
		c0.352-0.048,1.111-0.224,1.219-0.282c0.107-0.059,0.069-0.196-0.116-0.176c-0.205,0.022-0.683,0.049-0.985,0.107l0.841-1.26
		C19.942,14.318,19.969,14.199,19.886,14.304" />
    <path d="M16.753,20.396c0,0,0.81-0.352,1.089-1.008c0.279-0.657,0.036-0.912-0.441-0.978
		c-0.477-0.066-1.341-0.03-1.737,0.339s-0.342,0.729-0.054,0.954C15.898,19.927,16.457,20.305,16.753,20.396" />
    <path fill="#F06351" d="M16.349,21.646c0,0-0.18,0.371-0.458,0.594
		c-0.244,0.193-0.567,0.364-1.018,0.387c-0.638,0.033-1.056-0.169-1.452-0.445c-0.202-0.142-0.395-0.255-0.532-0.441
		c-0.157-0.183-0.356-0.253-0.356-0.253s0.747,4.099,2.566,4.747c1.817,0.647,2.144-0.75,2.2-1.134c0.048-0.325,0-2.082-0.82-3.224
		C16.464,21.574,16.448,21.777,16.349,21.646" />
    <path d="M14.708,22.779h-0.016c-1.293-0.011-2.291-1.361-2.333-1.418
		c-0.047-0.065-0.032-0.155,0.032-0.202s0.154-0.032,0.201,0.032c0.01,0.013,0.956,1.291,2.104,1.3h0.012
		c0.584,0,1.132-0.333,1.627-0.99l0.143-0.188l0.102,0.213c0.004,0.007,0.373,0.756,0.989,0.795c0.496,0.03,1.053-0.412,1.616-1.279
		c0.043-0.065,0.132-0.085,0.199-0.042c0.065,0.043,0.085,0.134,0.042,0.199c-0.633,0.974-1.265,1.448-1.877,1.409
		c-0.563-0.036-0.942-0.495-1.117-0.765C15.913,22.464,15.333,22.779,14.708,22.779" />
    <path fill="#F06351" d="M26.236,19.117c0,0-2.544,2.245-5.063,5.191
		c-2.521,2.947-5.292,4.876-5.292,4.876c-0.216-0.525-1.62-1.508-1.62-1.508s-3.132-2.14-5.184-3.824
		c-1.179-0.967-2.346-2.166-3.126-3.011c-0.292-0.016-1.065-0.057-2.006-0.109c4.692,6.97,11.972,8.803,11.972,8.803
		c0.864-0.141,3.276-1.858,5.076-3.263c1.801-1.402,4.752-4.524,5.94-5.892c0.6-0.693,0.944-1.42,1.135-1.971
		C26.96,18.792,26.236,19.117,26.236,19.117" />
  </g>
  <g>
    <path fill="#111111" d="M91.723,29.49c-0.814-1.005-1.225-2.456-1.225-4.353v-6.339
		c0-1.94,0.405-3.406,1.215-4.397c0.808-0.991,2.188-1.487,4.144-1.487c1.867,0,3.19,0.441,3.97,1.325
		c0.778,0.883,1.168,2.134,1.168,3.755v1.52h-3.857v-1.758c0-0.68-0.074-1.201-0.221-1.563c-0.149-0.361-0.501-0.543-1.06-0.543
		c-0.558,0-0.926,0.191-1.103,0.574c-0.176,0.384-0.264,0.916-0.264,1.597v8.273c0,0.692,0.092,1.226,0.275,1.595
		c0.184,0.369,0.547,0.554,1.091,0.554c0.543,0,0.893-0.185,1.048-0.554c0.154-0.369,0.232-0.902,0.232-1.595v-1.847h3.857v1.52
		c0,1.649-0.39,2.935-1.168,3.854C99.048,30.541,97.725,31,95.857,31C93.917,31,92.54,30.497,91.723,29.49" />
    <path fill="#111111" d="M105.696,13.152h4.495l3.331,17.587h-3.638l-0.596-3.712h-2.623l-0.619,3.712
		h-3.725L105.696,13.152z M108.914,24.703l-0.947-6.859l-0.949,6.859H108.914z" />
    <polygon fill="#111111" points="116.25,16.041 113.561,16.041 113.561,13.152 122.887,13.152 
		122.887,16.041 120.219,16.041 120.219,30.739 116.25,30.739 	" />
    <polygon fill="#111111" points="130.031,13.152 136.955,13.152 136.955,14.978 132.521,14.978 
		132.521,20.797 136.115,20.797 136.115,22.533 132.521,22.533 132.521,28.981 136.998,28.981 136.998,30.739 130.031,30.739 	" />
    <polygon fill="#111111" points="138.988,13.152 140.685,13.152 145.758,24.834 145.758,13.152 
		147.83,13.152 147.83,30.739 146.241,30.739 141.104,18.732 141.104,30.739 138.988,30.739 	" />
    <polygon fill="#111111" points="150.311,13.152 157.235,13.152 157.235,14.978 152.802,14.978 
		152.802,20.797 156.396,20.797 156.396,22.533 152.802,22.533 152.802,28.981 157.279,28.981 157.279,30.739 150.311,30.739 	" />
    <path fill="#111111" d="M159.269,13.152h3.592c1.809,0,3.136,0.365,3.981,1.098
		c0.844,0.73,1.268,1.92,1.268,3.571c0,2.259-0.736,3.625-2.206,4.103l2.535,8.815h-2.402l-2.337-8.251h-1.939v8.251h-2.491V13.152z
		 M162.706,20.73c1.073,0,1.843-0.21,2.306-0.63c0.464-0.42,0.693-1.179,0.693-2.279c0-0.724-0.081-1.292-0.242-1.704
		s-0.447-0.717-0.859-0.912s-0.993-0.293-1.743-0.293h-1.101v5.818H162.706z" />
    <path fill="#111111" d="M171.311,29.447c-0.721-1.006-1.081-2.499-1.081-4.483v-5.882
		c0-1.361,0.145-2.479,0.432-3.357c0.286-0.875,0.778-1.547,1.477-2.018c0.697-0.471,1.656-0.705,2.877-0.705
		c1.647,0,2.833,0.412,3.563,1.237c0.726,0.824,1.09,2.12,1.09,3.886v0.651h-2.336v-0.542c0-0.84-0.053-1.487-0.155-1.943
		c-0.103-0.455-0.32-0.8-0.65-1.031c-0.331-0.232-0.819-0.348-1.467-0.348c-0.69,0-1.205,0.155-1.544,0.467
		c-0.338,0.312-0.555,0.727-0.649,1.248c-0.096,0.521-0.145,1.217-0.145,2.086v6.512c0,1.347,0.166,2.313,0.496,2.898
		c0.331,0.586,0.968,0.879,1.908,0.879c0.926,0,1.562-0.318,1.908-0.955c0.344-0.636,0.518-1.657,0.518-3.061v-1.216h-2.271v-1.737
		h4.519v8.706h-1.563l-0.243-2.019c-0.561,1.49-1.618,2.236-3.175,2.236C173.2,30.957,172.031,30.453,171.311,29.447" />
    <polygon fill="#111111" points="184.78,24.53 180.924,13.152 183.238,13.152 185.972,21.643 
		188.663,13.152 191,13.152 187.164,24.53 187.164,30.739 184.78,30.739 	" />
  </g>
</svg>