<?xml version="1.0" encoding="utf-8"?>
<!DOCTYPE svg PUBLIC "-//W3C//DTD SVG 1.1//EN" "http://www.w3.org/Graphics/SVG/1.1/DTD/svg11.dtd">
<svg version="1.1" xmlns="http://www.w3.org/2000/svg" xmlns:xlink="http://www.w3.org/1999/xlink" x="0px" y="0px" width="172.264px" height="57.07px" viewBox="0 0 172.264 57.07" enable-background="new 0 0 172.264 57.07" xml:space="preserve">
  <g>
    <path fill="#FDC305" d="M59.625,21.739C54.196,8.746,39.263,2.613,26.27,8.042
		C13.277,13.469,7.145,28.403,12.573,41.396c3.57,8.548,11.254,14.125,19.793,15.397c-0.577-2.081-1.157-4.382-1.684-6.826
		c1.492,0.988,3.075,1.797,4.748,2.544c-0.006,0.003-0.013,0.007-0.02,0.01c0,0,0.118,2.147,0.278,4.547
		c1.766,0.028,3.549-0.127,5.324-0.477c-0.042-0.157-0.043-0.403,0.012-0.759c0.285-1.854,1.087-5.213,1.243-7.375
		c1.123-1.06,2.128-2.316,2.887-3.697c-0.001,0.012-0.002,0.024-0.004,0.037c-0.018,0.143-0.036,0.287-0.054,0.431
		c-0.552,4.246-1.697,8.775-2.393,10.028c-0.242,0.437-0.544,0.855-0.826,1.148c1.362-0.318,2.716-0.753,4.05-1.312
		C58.92,49.665,65.053,34.731,59.625,21.739 M58.153,25.508c-0.432,0.432-1.344,0.72-1.488-0.576
		c-0.143-1.295-0.192-2.207-0.192-2.207s-1.919-3.406-2.638-3.454c-0.72-0.048-5.806,3.454-7.15,4.942
		c-1.159,1.283-1.391,1.199-1.391,3.454c0,1.706,0.219,8.132,0.098,13.051c0,0-2.161,0.576-8.111,2.159
		c-5.949,1.584-7.773,1.776-7.773,1.776l-1.007-5.807c0,0-0.001,0-0.003-0.001c-0.005-0.001-0.018-0.003-0.039-0.006
		c-0.001,0-0.002,0-0.002,0c-0.011-0.002-0.022-0.004-0.035-0.005c-0.015-0.002-0.031-0.005-0.049-0.007L25.814,25.7
		c0,0-3.791-1.44-5.182-1.823c-1.392-0.384-2.255-0.672-4.03,0.624c-1.776,1.295-1.728,3.838-1.728,3.838s0.432,0.96,0.48,1.44
		c0.048,0.479-1.2,0.431-2.015,0.431c-0.816,0-0.912-1.439-0.288-3.119c0.623-1.679,1.919-3.694,1.919-3.694s1.2-2.255,2.063-2.879
		c0,0,0.144-0.336,1.248-0.24c1.103,0.096,7.245,0.432,7.245,0.432l0.053-2.265c6.663-0.908,13.431-1.368,20.157-1.33
		c-0.011,0.605-0.029,1.212-0.058,1.82c0,0,4.366-2.015,8.109-1.968c0,0,0.431-0.047,0.767,0.384
		c0.336,0.432,2.399,2.975,2.639,3.359c0.24,0.384,1.2,1.727,1.823,3.023C59.016,23.733,58.585,25.076,58.153,25.508" />
    <path fill="#F06351" d="M56.21,19.427c0.472,0.595,0.883,1.124,0.982,1.283
		c0.241,0.384,1.2,1.727,1.824,3.023c0,0-0.432,1.343-0.864,1.775s-1.343,0.719-1.487-0.576c-0.144-1.296-0.192-2.207-0.192-2.207
		s-1.919-3.407-2.639-3.455c-0.72-0.048-5.806,3.455-7.149,4.942c-1.16,1.284-1.392,1.2-1.392,3.455
		c0,1.495,0.169,6.621,0.129,11.177c1.801,0.208,4.447,0.707,5.245,1.874c0,0-0.288-7.149,7.773-3.407c0,0,0.288-9.74,11.419-7.245
		C69.859,30.066,64.216,23.137,56.21,19.427" />
    <path fill="#F06351" d="M45.735,17.115c0.145-8.477-1.401-16.461-1.401-16.461s-0.144-1.295-0.864-0.24
		c-0.719,1.056-1.199,3.935-1.199,3.935c-7.437-0.432-12.763,0.335-12.763,0.335c-0.816-2.735-2.207-3.934-2.879-3.646
		c-0.672,0.288-0.72,3.311-0.72,3.311l-0.33,14.096C32.242,17.537,39.01,17.077,45.735,17.115" />
    <path fill="#E55645" d="M45.154,44.761c0.126-1.062,0.2-2.476,0.238-4.042c0,0-2.161,0.574-8.111,2.158
		c-5.949,1.583-7.773,1.775-7.773,1.775l1.104,4.99c0.023,0.108,0.046,0.217,0.07,0.325c1.492,0.986,3.075,1.797,4.748,2.544
		c4.354-2.155,6.841-4.117,6.841-4.117c-0.001,0.021-0.003,0.042-0.004,0.062C43.39,47.397,44.395,46.142,45.154,44.761" />
    <path d="M31.859,13.993c-0.046-0.091,1.021,0.68,1.405,0.92c0.384,0.24,0.61,0.423,0.61,0.591
		S33.61,15.84,33.25,15.84s-0.912-0.12-0.959-0.264c0,0,0.599-0.024,0.935-0.024h0.288C33.514,15.552,32.124,14.521,31.859,13.993" />
    <path d="M39.329,14.106c0,0-1.046,1.273-1.085,1.332c-0.04,0.059-0.166,0.341,0.185,0.293
		c0.35-0.049,1.11-0.225,1.217-0.283c0.108-0.059,0.07-0.196-0.116-0.175c-0.205,0.021-0.682,0.048-0.985,0.106l0.841-1.26
		C39.386,14.119,39.412,14.001,39.329,14.106" />
    <path d="M36.198,20.194c0,0,0.81-0.351,1.089-1.007c0.279-0.657,0.036-0.912-0.441-0.978
		s-1.34-0.03-1.736,0.339s-0.342,0.729-0.054,0.954C35.344,19.726,35.901,20.104,36.198,20.194" />
    <path fill="#F06351" d="M35.793,21.445c0,0-0.179,0.372-0.458,0.594
		c-0.243,0.193-0.567,0.363-1.017,0.386c-0.638,0.033-1.055-0.169-1.451-0.445c-0.203-0.141-0.395-0.254-0.532-0.442
		c-0.157-0.181-0.356-0.252-0.356-0.252s0.747,4.097,2.564,4.745c1.817,0.647,2.143-0.749,2.2-1.133c0.048-0.326,0-2.081-0.82-3.222
		C35.908,21.373,35.893,21.576,35.793,21.445" />
    <path d="M34.153,22.577h-0.016c-1.292-0.011-2.29-1.36-2.332-1.418
		c-0.047-0.064-0.032-0.154,0.032-0.201c0.064-0.047,0.154-0.032,0.201,0.032c0.01,0.013,0.956,1.29,2.103,1.299h0.012
		c0.584,0,1.131-0.333,1.627-0.989l0.142-0.189l0.103,0.213c0.003,0.007,0.372,0.755,0.987,0.794
		c0.497,0.031,1.053-0.411,1.616-1.278c0.043-0.066,0.132-0.085,0.199-0.042c0.067,0.043,0.085,0.133,0.042,0.199
		c-0.633,0.974-1.264,1.447-1.876,1.408c-0.563-0.036-0.942-0.495-1.117-0.764C35.357,22.263,34.778,22.577,34.153,22.577" />
    <path fill="#111111" d="M41.054,29.214l-3.12,1.304l1.145-5.612l-7.469,9.72l3.12-1.304l-1.145,5.612
		L41.054,29.214z M33.698,33.021l4.113-5.385l-0.803,4.002l1.958-0.818l-4.113,5.385l0.803-4.002L33.698,33.021z" />
    <path fill="#F06351" d="M45.678,18.916c0,0-2.543,2.244-5.062,5.189
		c-2.519,2.945-5.29,4.874-5.29,4.874c-0.216-0.526-1.619-1.508-1.619-1.508s-3.131-2.138-5.182-3.822
		c-1.179-0.967-2.346-2.165-3.125-3.01c-0.292-0.015-1.065-0.057-2.005-0.109c4.69,6.968,11.967,8.8,11.967,8.8
		c0.864-0.141,3.275-1.859,5.074-3.261c1.799-1.403,4.75-4.523,5.938-5.891c0.6-0.692,0.943-1.419,1.135-1.969
		C46.4,18.591,45.678,18.916,45.678,18.916" />
    <path fill="#F06351" d="M25.813,25.7c0,0-3.791-1.439-5.182-1.823c-1.391-0.384-2.255-0.672-4.03,0.624
		c-1.775,1.295-1.727,3.838-1.727,3.838s0.431,0.96,0.48,1.44c0.047,0.479-1.2,0.431-2.016,0.431s-0.911-1.439-0.288-3.118
		c0.624-1.68,1.92-3.695,1.92-3.695C9.548,26.228,0,32.753,0,32.753s2.926-0.287,8.156,0.24c5.23,0.527,4.942,4.653,4.942,4.653
		s3.503-0.959,5.614-1.103c2.111-0.145,2.255,2.111,2.255,2.111l0.528,3.838c0,0,0.48-0.623,2.639-2.352
		c1.853-1.482,3.868-1.355,4.366-1.295L25.813,25.7z" />
    <path fill="#111111" d="M89.559,37.121c-0.663-0.854-0.994-2.082-0.994-3.69v-5.337
		c0-1.644,0.328-2.886,0.985-3.726c0.656-0.841,1.782-1.261,3.377-1.261c1.521,0,2.597,0.371,3.229,1.113
		c0.631,0.742,0.947,1.807,0.947,3.193v1.251h-2.944v-1.379c0-0.442-0.021-0.798-0.063-1.068c-0.044-0.27-0.154-0.493-0.332-0.672
		c-0.178-0.177-0.451-0.267-0.819-0.267c-0.552,0-0.908,0.178-1.066,0.534c-0.16,0.356-0.239,0.877-0.239,1.565v6.771
		c0,0.7,0.092,1.222,0.276,1.564c0.184,0.344,0.526,0.516,1.029,0.516c0.517,0,0.848-0.175,0.994-0.524
		c0.147-0.351,0.221-0.868,0.221-1.556v-1.454h2.944v1.233c0,1.423-0.313,2.525-0.938,3.304c-0.626,0.779-1.706,1.168-3.239,1.168
		C91.344,38.399,90.222,37.974,89.559,37.121" />
    <path fill="#111111" d="M101.116,23.291h3.368l2.87,14.907h-2.797l-0.553-3.275h-2.355l-0.569,3.275
		h-2.854L101.116,23.291z M103.711,33.045l-0.902-6l-0.883,6H103.711z" />
    <polygon fill="#111111" points="109.508,25.536 107.207,25.536 107.207,23.291 114.826,23.291 
		114.826,25.536 112.563,25.536 112.563,38.197 109.508,38.197 	" />
    <polygon fill="#444444" points="120.808,23.291 126.586,23.291 126.586,24.836 122.887,24.836 
		122.887,29.769 125.887,29.769 125.887,31.24 122.887,31.24 122.887,36.707 126.623,36.707 126.623,38.197 120.808,38.197 	" />
    <polygon fill="#444444" points="128.298,23.291 129.715,23.291 133.947,33.191 133.947,23.291 
		135.678,23.291 135.678,38.197 134.353,38.197 130.064,28.02 130.064,38.197 128.298,38.197 	" />
    <polygon fill="#444444" points="138.015,23.291 143.794,23.291 143.794,24.836 140.094,24.836 
		140.094,29.769 143.094,29.769 143.094,31.24 140.094,31.24 140.094,36.707 143.83,36.707 143.83,38.197 138.015,38.197 	" />
    <path fill="#444444" d="M145.505,23.291h3c1.509,0,2.616,0.31,3.322,0.929
		c0.705,0.62,1.058,1.629,1.058,3.028c0,1.914-0.612,3.073-1.841,3.478l2.117,7.472h-2.007l-1.95-6.993h-1.62v6.993h-2.079V23.291z
		 M148.376,29.713c0.896,0,1.537-0.178,1.923-0.534c0.386-0.356,0.58-1,0.58-1.932c0-0.614-0.068-1.095-0.203-1.445
		c-0.135-0.35-0.375-0.608-0.717-0.773c-0.344-0.165-0.829-0.248-1.454-0.248h-0.921v4.932H148.376z" />
    <path fill="#444444" d="M155.682,37.103c-0.601-0.854-0.901-2.119-0.901-3.801v-4.987
		c0-1.153,0.12-2.102,0.358-2.844c0.24-0.742,0.65-1.312,1.233-1.711c0.582-0.399,1.384-0.598,2.402-0.598
		c1.374,0,2.364,0.349,2.972,1.048c0.608,0.7,0.911,1.798,0.911,3.295v0.552h-1.951v-0.46c0-0.711-0.043-1.261-0.128-1.647
		c-0.086-0.387-0.267-0.678-0.543-0.874c-0.276-0.196-0.686-0.295-1.224-0.295c-0.577,0-1.007,0.132-1.288,0.396
		c-0.282,0.263-0.464,0.616-0.543,1.058c-0.081,0.441-0.12,1.031-0.12,1.767v5.521c0,1.141,0.138,1.96,0.414,2.457
		s0.807,0.745,1.592,0.745c0.772,0,1.304-0.27,1.592-0.811c0.288-0.54,0.432-1.405,0.432-2.594V32.29h-1.895v-1.472h3.772v7.379
		h-1.307l-0.202-1.711c-0.466,1.263-1.35,1.895-2.65,1.895C157.259,38.381,156.284,37.956,155.682,37.103" />
    <polygon fill="#444444" points="167.073,32.935 163.854,23.29 165.786,23.29 168.067,30.486 
		170.313,23.29 172.264,23.29 169.062,32.935 169.062,38.197 167.073,38.197 	" />
  </g>
</svg>