<?xml version="1.0" encoding="utf-8"?>
<!-- Generator: Adobe Illustrator 16.0.0, SVG Export Plug-In . SVG Version: 6.00 Build 0)  -->
<!DOCTYPE svg PUBLIC "-//W3C//DTD SVG 1.1//EN" "http://www.w3.org/Graphics/SVG/1.1/DTD/svg11.dtd">
<svg version="1.1" xmlns="http://www.w3.org/2000/svg" xmlns:xlink="http://www.w3.org/1999/xlink" x="0px" y="0px"
	 width="22.987px" height="23px" viewBox="0 0 22.987 23" enable-background="new 0 0 22.987 23" xml:space="preserve">
<g>
	<defs>
		<rect width="22.987" height="23"/>
	</defs>
	<path d="M16.989,1.499c2.479,0,4.498,2.02,4.498,4.501v11c0,2.48-2.019,4.5-4.498,4.5
		H5.997c-2.48,0-4.498-2.02-4.498-4.5V6c0-2.481,2.018-4.5,4.498-4.5L16.989,1.499 M16.989,0H5.997C2.697,0,0,2.699,0,6v11.001
		C0,20.299,2.697,23,5.997,23h10.995c3.296,0,5.995-2.701,5.995-6V6C22.987,2.699,20.288,0,16.989,0"/>
	<path d="M11.493,7.078c2.439,0,4.429,1.985,4.429,4.428c0,2.44-1.989,4.43-4.429,4.43
		c-2.443,0-4.428-1.988-4.428-4.43C7.065,9.063,9.05,7.078,11.493,7.078 M11.493,5.578c-3.273,0-5.928,2.654-5.928,5.928
		c0,3.274,2.654,5.927,5.928,5.927c3.273,0,5.926-2.652,5.926-5.927C17.419,8.232,14.767,5.578,11.493,5.578"/>
	<path d="M17.634,4.038c0.739,0,1.341,0.601,1.341,1.341
		c0,0.741-0.602,1.341-1.341,1.341c-0.741,0-1.343-0.6-1.343-1.341C16.291,4.639,16.893,4.038,17.634,4.038"/>
</g>
</svg>
