<?xml version="1.0" encoding="utf-8"?>
<!-- Generator: Adobe Illustrator 16.0.0, SVG Export Plug-In . SVG Version: 6.00 Build 0)  -->
<!DOCTYPE svg PUBLIC "-//W3C//DTD SVG 1.1//EN" "http://www.w3.org/Graphics/SVG/1.1/DTD/svg11.dtd">
<svg version="1.1" xmlns="http://www.w3.org/2000/svg" xmlns:xlink="http://www.w3.org/1999/xlink" x="0px" y="0px"
	 width="19.955px" height="19.925px" viewBox="0 0 19.955 19.925" enable-background="new 0 0 19.955 19.925" xml:space="preserve">
<g>
	<defs>
		<rect width="19.955" height="19.925"/>
	</defs>
	<path d="M17.906,9.405h-8.5v1.2h8.5l-2.102,2.1l0.901,0.9l3.099-3.101c0.201-0.2,0.201-0.6,0-0.9
		l-3.099-3.1l-0.901,0.9L17.906,9.405z"/>
	<path d="M8.105,19.405v-6.2c0-0.3-0.3-0.6-0.6-0.6h-3.1h-1.3c0,0.699,0.6,1.199,1.2,1.199h2.5v5h-3.7
		c-1,0.101-1.8-0.699-1.9-1.699v-0.2v-13.8c0-1,0.8-1.8,1.7-1.8h0.2h3.7v5h-2.4c-0.7,0-1.2,0.6-1.2,1.2h4.4c0.3,0,0.6-0.3,0.6-0.6
		v-6.3c-0.1-0.3-0.4-0.6-0.7-0.6h-4.4c-1.6-0.1-3,1.2-3.1,2.9v0.2v13.7c-0.1,1.701,1.2,3.101,2.9,3.101h0.2h4.4
		C7.806,20.006,8.105,19.705,8.105,19.405"/>
</g>
</svg>
