<?xml version="1.0" encoding="utf-8"?>
<!DOCTYPE svg PUBLIC "-//W3C//DTD SVG 1.1//EN" "http://www.w3.org/Graphics/SVG/1.1/DTD/svg11.dtd">
<svg version="1.1" xmlns="http://www.w3.org/2000/svg" xmlns:xlink="http://www.w3.org/1999/xlink" x="0px" y="0px" width="127.8px" height="23.5px" viewBox="0 0 127.8 23.5" enable-background="new 0 0 127.8 23.5" xml:space="preserve">
  <g>
    <path fill="#111111" d="M1.6,21.5c-1-1.3-1.6-3.2-1.6-5.6V7.6c0-2.5,0.5-4.4,1.5-5.7
		C2.6,0.6,4.3,0,6.8,0c2.4,0,4.1,0.6,5.1,1.7c1,1.1,1.5,2.8,1.5,4.9v2H8.5V6.3c0-0.9-0.1-1.6-0.3-2C8,3.9,7.6,3.5,6.8,3.5
		c-0.7,0-1.2,0.2-1.4,0.7C5.2,4.7,5.1,5.5,5.1,6.4v10.7C5.1,18,5.2,18.7,5.5,19.2c0.2,0.5,0.7,0.7,1.4,0.7c0.7,0,1.1-0.2,1.3-0.7
		C8.4,18.7,8.5,18,8.5,17.1V14.7h4.9v2c0,2.1-0.5,3.8-1.5,5s-2.7,1.8-5.1,1.8C4.4,23.4,2.6,22.8,1.6,21.5" />
    <path fill="#111111" d="M19.3,0.3H25l4.2,22.8h-4.6l-0.8-4.8h-3.3l-0.8,4.8H15L19.3,0.3z M23.4,15.3
		l-1.2-8.9L21,15.3H23.4z" />
    <polygon fill="#111111" points="32.7,4.1 29.3,4.1 29.3,0.3 41.2,0.3 41.2,4 37.8,4 37.8,23.101 
		32.7,23.101 	" />
    <polygon fill="#111111" points="50.3,0.3 59.1,0.3 59.1,2.7 53.4,2.7 53.4,10.2 58,10.2 58,12.5 
		53.4,12.5 53.4,20.9 59.1,20.9 59.1,23.2 50.2,23.2 50.2,0.3 	" />
    <polygon fill="#111111" points="61.7,0.3 63.9,0.3 70.4,15.4 70.4,0.3 73,0.3 73,23.1 71,23.1 
		64.4,7.5 64.4,23.1 61.7,23.1 	" />
    <polygon fill="#111111" points="76,0.3 84.8,0.3 84.8,2.7 79.1,2.7 79.1,10.2 83.7,10.2 83.7,12.5 
		79.1,12.5 79.1,20.9 84.8,20.9 84.8,23.2 76,23.2 	" />
    <path fill="#111111" d="M87.4,0.3H92c2.3,0,4,0.5,5.1,1.4C98.2,2.6,98.7,4.2,98.7,6.3
		c0,2.9-0.9,4.7-2.8,5.3L99.1,23H96l-3-10.7h-2.5V23h-3.2V0.3H87.4z M91.8,10.1c1.4,0,2.3-0.3,2.9-0.8c0.6-0.5,0.899-1.5,0.899-3
		c0-0.9-0.1-1.7-0.3-2.2s-0.6-0.9-1.1-1.2c-0.5-0.3-1.3-0.4-2.2-0.4h-1.4V10h1.2V10.1z" />
    <path fill="#111111" d="M102.7,21.4c-0.9-1.301-1.4-3.2-1.4-5.801V8c0-1.8,0.2-3.201,0.5-4.3
		c0.4-1.1,1-2,1.9-2.6c0.899-0.6,2.1-0.9,3.7-0.9c2.1,0,3.6,0.5,4.5,1.599c0.899,1.101,1.399,2.701,1.399,5v0.801h-3V6.9
		c0-1.101-0.1-1.9-0.2-2.5c-0.1-0.601-0.399-1-0.8-1.3c-0.399-0.301-1-0.5-1.899-0.5c-0.9,0-1.5,0.199-2,0.6
		c-0.5,0.4-0.7,0.9-0.801,1.599C104.5,5.5,104.4,6.4,104.4,7.5V16c0,1.7,0.199,3,0.6,3.8s1.2,1.101,2.4,1.101
		c1.199,0,2-0.4,2.399-1.2c0.4-0.8,0.7-2.101,0.7-4V14.1h-2.9v-2.3h5.801v11.3h-2l-0.301-2.6c-0.699,1.9-2.1,2.9-4.1,2.9
		C105.1,23.4,103.6,22.7,102.7,21.4" />
    <polygon fill="#111111" points="119.8,15.1 114.9,0.399 117.9,0.399 121.4,11.399 124.8,0.399 
		127.8,0.399 122.9,15.1 122.9,23.1 119.9,23.1 119.9,15.1 	" />
  </g>
</svg>