<?xml version="1.0" encoding="utf-8"?>
<!-- Generator: Adobe Illustrator 16.0.0, SVG Export Plug-In . SVG Version: 6.00 Build 0)  -->
<!DOCTYPE svg PUBLIC "-//W3C//DTD SVG 1.1//EN" "http://www.w3.org/Graphics/SVG/1.1/DTD/svg11.dtd">
<svg version="1.1" xmlns="http://www.w3.org/2000/svg" xmlns:xlink="http://www.w3.org/1999/xlink" x="0px" y="0px"
	 width="13.518px" height="27.749px" viewBox="0 0 13.518 27.749" enable-background="new 0 0 13.518 27.749" xml:space="preserve">
<g>
	<defs>
		<rect width="13.518" height="27.749"/>
	</defs>
	<path d="M9.531,27.749H2.715V14.845H0V8.471h2.629c-0.202-2.888,0.298-5,1.519-6.444
		C5.187,0.798,6.731,0.116,8.735,0L13.518,0V6.15H9.763C9.597,6.465,9.512,7.244,9.511,8.471h3.979v6.375H9.531V27.749z
		 M4.215,26.249h3.816V13.345h3.957V9.971H8.035L8.019,9.237c-0.044-2.04,0.003-3.784,1.008-4.46L9.216,4.65h2.801V1.5H8.777
		c-1.557,0.092-2.71,0.582-3.484,1.497c-1.041,1.231-1.41,3.297-1.099,6.144l0.092,0.832H1.5v3.375h2.715V26.249z"/>
</g>
</svg>
