<?xml version="1.0" encoding="utf-8"?>
<!-- Generator: Adobe Illustrator 16.0.0, SVG Export Plug-In . SVG Version: 6.00 Build 0)  -->
<!DOCTYPE svg PUBLIC "-//W3C//DTD SVG 1.1//EN" "http://www.w3.org/Graphics/SVG/1.1/DTD/svg11.dtd">
<svg version="1.1" xmlns="http://www.w3.org/2000/svg" xmlns:xlink="http://www.w3.org/1999/xlink" x="0px" y="0px"
	 width="30.003px" height="15.759px" viewBox="0 0 30.003 15.759" enable-background="new 0 0 30.003 15.759" xml:space="preserve">
<g>
	<defs>
		<rect width="30.003" height="15.759"/>
	</defs>
	<path d="M23.939,15.759c-0.387,0-1.171-0.082-2.076-0.632c-0.642-0.386-1.223-0.969-1.784-1.532
		c-0.438-0.44-1.171-1.177-1.446-1.177c-0.269,0.074-0.48,0.921-0.477,1.568c0.004,0.113-0.001,0.774-0.467,1.213
		c-0.426,0.4-1.089,0.486-1.217,0.498l-1.926,0.008c-0.967,0-4.358-0.219-7.429-3.021C3.443,9.325,0.282,2.886,0.149,2.614
		c-0.197-0.462-0.248-1.066,0.152-1.482C0.693,0.719,1.382,0.66,1.66,0.653l4.083-0.025l0.115,0.009
		c0.091,0.014,0.567,0.094,0.957,0.349c0.388,0.246,0.59,0.651,0.626,0.73c0.01,0.021,0.649,1.432,1.475,2.683
		c1.312,1.991,1.896,2.456,2.103,2.562c0.188-0.417,0.277-1.699,0.187-2.87c0.001-0.493-0.101-1.098-0.252-1.278
		c-0.112-0.134-0.426-0.253-0.778-0.294L9.455,1.828c-0.096-0.659,0.635-1.226,1.149-1.446C11.34,0.065,12.396,0,13.75,0l0.71,0.005
		c1.235,0.012,1.622,0.081,2.15,0.191c1.701,0.361,1.639,1.729,1.566,3.312c-0.021,0.464-0.046,1.001-0.046,1.62
		c0,0.152-0.006,0.312-0.012,0.479c-0.011,0.381-0.032,1.039,0.093,1.305c0.22-0.145,0.854-0.665,2.072-2.483
		c0.784-1.165,1.4-2.539,1.518-2.803l0.001-0.001c0.183-0.43,0.607-0.941,1.612-0.946l4.275-0.024
		c0.011-0.003,0.171-0.016,0.377-0.016c0.979,0,1.596,0.287,1.832,0.854c0.268,0.65,0.169,1.656-2.355,4.605
		c-0.369,0.432-0.696,0.804-0.981,1.127c-0.598,0.678-1.216,1.379-1.237,1.595c0.053,0.168,0.662,0.664,1.252,1.145
		c1.531,1.247,2.529,2.265,3.033,3.073c0.522,0.759,0.429,1.329,0.258,1.677c-0.424,0.864-1.637,0.974-1.877,0.984l-3.79,0.048
		C24.147,15.753,24.057,15.759,23.939,15.759 M18.632,10.919c0.898,0,1.683,0.786,2.511,1.618c0.497,0.5,1.011,1.016,1.496,1.307
		c0.727,0.439,1.315,0.421,1.397,0.412l0.104-0.009l3.805-0.048c0.171-0.011,0.412-0.072,0.537-0.135
		c-0.02-0.04-0.049-0.095-0.099-0.167c-0.449-0.719-1.389-1.66-2.687-2.719c-1.184-0.963-1.801-1.465-1.865-2.244
		c-0.065-0.805,0.493-1.439,1.608-2.703c0.279-0.318,0.603-0.685,0.966-1.109c1.56-1.821,1.957-2.641,2.059-2.956
		c-0.171-0.029-0.647-0.021-0.679-0.019l-4.36,0.029c-0.19,0.001-0.249,0.034-0.249,0.036c-0.177,0.414-0.813,1.811-1.645,3.05
		c-1.895,2.82-2.785,3.2-3.407,3.201c-0.204,0-0.396-0.05-0.568-0.149c-1.003-0.568-0.963-1.833-0.935-2.756
		c0.005-0.149,0.011-0.295,0.011-0.432c0-0.645,0.024-1.207,0.048-1.688c0.076-1.68,0.016-1.692-0.379-1.776
		c-0.409-0.086-0.705-0.147-1.856-0.16l-0.693-0.004c-0.624,0-1.343,0.014-1.906,0.098c0.092,0.073,0.18,0.156,0.259,0.251
		c0.588,0.704,0.604,1.951,0.601,2.194c0.13,1.646,0.061,3.796-1.018,4.313c-0.191,0.092-0.392,0.137-0.597,0.137
		c-0.926,0-1.854-0.886-3.425-3.267c-0.895-1.354-1.56-2.824-1.587-2.888C6.067,2.316,6.024,2.261,6.003,2.244
		C5.92,2.19,5.771,2.147,5.684,2.127L1.683,2.152c-0.021,0.001-0.045,0.002-0.07,0.005c0.591,1.189,3.426,6.592,6.519,9.418
		c2.74,2.503,5.826,2.63,6.417,2.63l1.852-0.004c0.045-0.01,0.217-0.062,0.268-0.099c-0.018,0.018-0.01-0.054-0.01-0.098
		c-0.003-0.266,0.012-2.596,1.578-3.034C18.362,10.938,18.495,10.919,18.632,10.919"/>
</g>
</svg>
