<svg xmlns="http://www.w3.org/2000/svg" xmlns:xlink="http://www.w3.org/1999/xlink"><defs>
		<rect y="0" width="55.479" height="59.955"/>
	
		<rect width="19.955" height="19.925"/>
	
		<rect width="13.518" height="27.749"/>
	
		<rect width="22.987" height="23"/>
	
		<rect width="30.003" height="15.759"/>
	
		<rect width="367.603" height="512"/>
	</defs><symbol id="add-catalog--gift" viewBox="0 0 55.479 59.955">
<g>
	
	<path d="M52.348,12.17h-6.96c0.462-0.668,0.827-1.408,1.066-2.21c0.59-1.984,0.372-4.078-0.613-5.898
		c-0.984-1.819-2.618-3.147-4.603-3.737c-1.982-0.59-4.078-0.373-5.897,0.612c-3.608,1.954-6.168,6.11-7.601,9.011
		c-1.433-2.901-3.993-7.056-7.601-9.011c-3.758-2.032-8.468-0.629-10.5,3.125c-1.437,2.654-1.153,5.781,0.459,8.108H3.133
		C1.405,12.17,0,13.575,0,15.302v9.381c0,1.727,1.405,3.131,3.133,3.131h0.83v26.11c0,3.325,2.705,6.03,6.031,6.03h35.491
		c3.323,0,6.029-2.705,6.029-6.03v-26.11h0.834c1.727,0,3.13-1.404,3.13-3.13v-9.382C55.479,13.575,54.074,12.17,52.348,12.17
		 M36.483,3.048c1.256-0.68,2.7-0.83,4.07-0.423c1.368,0.408,2.496,1.323,3.175,2.58c0.682,1.256,0.831,2.702,0.425,4.071
		c-0.358,1.204-1.128,2.202-2.159,2.894H29.354C30.483,9.645,32.959,4.957,36.483,3.048 M11.749,5.206
		c1.402-2.592,4.653-3.56,7.248-2.157c3.524,1.909,5.999,6.596,7.129,9.122H13.487C11.227,10.651,10.428,7.646,11.749,5.206
		 M26.54,41.486H6.363V27.814H26.54V41.486z M6.363,53.924V43.885H26.54v13.67H9.994C7.992,57.555,6.363,55.926,6.363,53.924
		 M45.485,57.555H28.939v-13.67h20.175v10.039C49.114,55.926,47.486,57.555,45.485,57.555 M49.114,41.486H28.939V27.814h20.175
		V41.486z M53.079,24.685c0,0.403-0.328,0.731-0.731,0.731h-2.03c-0.001,0-0.002-0.001-0.003-0.001s-0.003,0.001-0.004,0.001H27.743
		c-0.001,0-0.002-0.001-0.003-0.001c-0.001,0-0.002,0.001-0.003,0.001H5.166c-0.001,0-0.002-0.001-0.003-0.001
		s-0.002,0.001-0.003,0.001H3.133c-0.404,0-0.733-0.328-0.733-0.731v-9.382c0-0.397,0.335-0.732,0.733-0.732h49.215
		c0.396,0,0.731,0.334,0.731,0.732V24.685z"/>
</g>
</symbol><symbol id="form--mail" viewBox="0 0 17 13">
<path d="M15.6,5.8V11.6H1.4V5.8H0V13h17V5.8H15.6z M1.4,1.6V1.4h14.2V1.6L8.5,7.5L1.4,1.6z M0,0v2.299L8.5,9.4L17,2.299V0H0z"/>
</symbol><symbol id="form--phonel" viewBox="0 0 19.955 19.925">
<g>
	
	<path d="M17.906,9.405h-8.5v1.2h8.5l-2.102,2.1l0.901,0.9l3.099-3.101c0.201-0.2,0.201-0.6,0-0.9
		l-3.099-3.1l-0.901,0.9L17.906,9.405z"/>
	<path d="M8.105,19.405v-6.2c0-0.3-0.3-0.6-0.6-0.6h-3.1h-1.3c0,0.699,0.6,1.199,1.2,1.199h2.5v5h-3.7
		c-1,0.101-1.8-0.699-1.9-1.699v-0.2v-13.8c0-1,0.8-1.8,1.7-1.8h0.2h3.7v5h-2.4c-0.7,0-1.2,0.6-1.2,1.2h4.4c0.3,0,0.6-0.3,0.6-0.6
		v-6.3c-0.1-0.3-0.4-0.6-0.7-0.6h-4.4c-1.6-0.1-3,1.2-3.1,2.9v0.2v13.7c-0.1,1.701,1.2,3.101,2.9,3.101h0.2h4.4
		C7.806,20.006,8.105,19.705,8.105,19.405"/>
</g>
</symbol><symbol id="logo-academy" viewBox="0 0 26.943 34.09">
<path d="M13.62,0.017L13.472,0L0,1.412v24.661l13.474,8.017l13.43-7.99l0.042-0.024V1.412L13.62,0.017z M25.019,12.127L13.495,5.334
	L13.494,5.23l-0.087,0.05l-0.088-0.056v0.109L1.925,12.118V3.147l11.549-1.212L25.02,3.147L25.019,12.127L25.019,12.127z
	 M13.405,6.787L24.923,13.5l-4.479,2.64l-7.093-4.221l-0.015,1.415l5.904,3.513l-0.86,0.507l-5.029-2.992l-0.015,1.415l3.827,2.275
	l-0.782,0.523l-3.03-1.787l-0.015,1.413l1.854,1.091l-1.8,1.081L2.034,13.622L13.405,6.787z M1.925,15.127l11.411,6.791l0.017,1.044
	L5.41,18.234L5.395,19.65l7.979,4.795l0.019,1.076l-7.974-4.74l-0.013,1.414l8.021,4.822l0.047,0.024l8.143-4.872l-0.011-5.177
	l3.415-2.036v10.021L13.472,31.85L1.925,24.979V15.127z"/>
</symbol><symbol id="logo-desktop" viewBox="0 0 201.99 59.48">
  <g>
    <path fill="#FDC305" d="M59.885,23.995c-5.453-13.049-20.451-19.209-33.5-13.756
		c-13.05,5.451-19.209,20.45-13.757,33.5c3.586,8.584,11.303,14.187,19.879,15.463c-0.58-2.09-1.163-4.399-1.692-6.854
		c1.499,0.991,3.089,1.805,4.77,2.555c-0.007,0.004-0.014,0.006-0.021,0.01c0,0,0.119,2.157,0.28,4.566
		c1.773,0.029,3.564-0.127,5.347-0.479c-0.043-0.156-0.043-0.404,0.011-0.761c0.287-1.863,1.093-5.237,1.249-7.408
		c1.129-1.063,2.138-2.325,2.9-3.713c-0.002,0.013-0.003,0.025-0.004,0.037c-0.018,0.144-0.036,0.288-0.055,0.434
		c-0.554,4.265-1.704,8.813-2.403,10.07c-0.243,0.438-0.546,0.859-0.83,1.154c1.368-0.321,2.729-0.757,4.068-1.317
		C59.177,52.042,65.336,37.045,59.885,23.995 M58.406,27.78c-0.434,0.434-1.349,0.723-1.494-0.578
		c-0.144-1.301-0.193-2.217-0.193-2.217s-1.927-3.421-2.65-3.47c-0.723-0.047-5.831,3.47-7.18,4.964
		c-1.165,1.289-1.398,1.205-1.398,3.47c0,1.712,0.221,8.166,0.099,13.108c0,0-2.171,0.578-8.146,2.168
		c-5.976,1.59-7.807,1.783-7.807,1.783l-1.012-5.831h-0.002c-0.006-0.001-0.019-0.004-0.04-0.007c-0.001,0-0.002,0-0.002-0.001
		c-0.01-0.001-0.022-0.004-0.035-0.006c-0.015-0.002-0.031-0.004-0.049-0.006l-2.57-13.185c0,0-3.808-1.446-5.205-1.831
		c-1.398-0.386-2.265-0.675-4.048,0.626c-1.783,1.302-1.735,3.855-1.735,3.855s0.434,0.964,0.482,1.446
		c0.048,0.482-1.205,0.435-2.024,0.435c-0.819,0-0.916-1.446-0.289-3.133c0.626-1.686,1.927-3.71,1.927-3.71
		s1.205-2.265,2.073-2.892c0,0,0.144-0.337,1.253-0.24c1.108,0.096,7.276,0.433,7.276,0.433l0.054-2.275
		c6.692-0.912,13.489-1.374,20.244-1.336c-0.01,0.608-0.029,1.218-0.058,1.828c0,0,4.385-2.024,8.144-1.976
		c0,0,0.434-0.048,0.771,0.386c0.337,0.434,2.409,2.988,2.651,3.373c0.24,0.386,1.204,1.735,1.831,3.036
		C59.274,25.998,58.84,27.347,58.406,27.78"/>
    <path fill="#F06351" d="M56.455,21.673c0.474,0.598,0.887,1.129,0.987,1.289
		c0.241,0.385,1.205,1.734,1.831,3.036c0,0-0.433,1.349-0.867,1.782c-0.434,0.435-1.349,0.724-1.494-0.578
		c-0.145-1.301-0.193-2.216-0.193-2.216s-1.928-3.422-2.65-3.47c-0.723-0.048-5.831,3.47-7.18,4.964
		c-1.165,1.289-1.398,1.204-1.398,3.469c0,1.502,0.17,6.649,0.129,11.226c1.81,0.209,4.466,0.71,5.268,1.882
		c0,0-0.289-7.18,7.807-3.422c0,0,0.289-9.782,11.469-7.275C70.164,32.359,64.496,25.4,56.455,21.673"/>
    <path fill="#F06351" d="M45.935,19.351c0.146-8.514-1.407-16.532-1.407-16.532
		s-0.145-1.301-0.868-0.241s-1.204,3.951-1.204,3.951c-7.47-0.433-12.819,0.338-12.819,0.338c-0.819-2.747-2.217-3.952-2.891-3.663
		c-0.675,0.289-0.723,3.325-0.723,3.325L25.69,20.687C32.383,19.775,39.181,19.313,45.935,19.351"/>
    <path fill="#E55645" d="M45.351,47.117c0.126-1.065,0.2-2.485,0.239-4.061c0,0-2.171,0.579-8.146,2.168
		c-5.976,1.59-7.807,1.784-7.807,1.784l1.109,5.011c0.022,0.11,0.046,0.219,0.069,0.326c1.499,0.992,3.089,1.805,4.77,2.555
		c4.372-2.163,6.87-4.134,6.87-4.134c-0.001,0.021-0.002,0.041-0.004,0.063C43.58,49.765,44.588,48.504,45.351,47.117"/>
    <path d="M31.998,16.215c-0.046-0.091,1.026,0.684,1.412,0.924c0.385,0.242,0.612,0.426,0.612,0.594
		c0,0.169-0.265,0.337-0.627,0.337c-0.361,0-0.915-0.12-0.963-0.265c0,0,0.602-0.024,0.94-0.024h0.289
		C33.661,17.781,32.263,16.745,31.998,16.215"/>
    <path d="M39.5,16.329c0,0-1.051,1.279-1.09,1.338s-0.167,0.343,0.186,0.294
		c0.352-0.049,1.115-0.225,1.223-0.284c0.107-0.059,0.07-0.197-0.118-0.176c-0.205,0.022-0.685,0.049-0.988,0.107l0.844-1.265
		C39.558,16.343,39.584,16.224,39.5,16.329"/>
    <path d="M36.356,22.443c0,0,0.813-0.353,1.093-1.012c0.281-0.659,0.037-0.916-0.442-0.982
		s-1.346-0.03-1.744,0.341c-0.398,0.37-0.344,0.732-0.054,0.957C35.498,21.974,36.058,22.354,36.356,22.443"/>
    <path fill="#F06351" d="M35.95,23.7c0,0-0.181,0.374-0.46,0.597c-0.245,0.194-0.57,0.364-1.022,0.388
		c-0.641,0.033-1.06-0.17-1.457-0.447c-0.204-0.142-0.397-0.256-0.535-0.444c-0.157-0.182-0.357-0.254-0.357-0.254
		s0.75,4.116,2.576,4.766c1.825,0.651,2.151-0.752,2.209-1.137c0.048-0.327,0-2.091-0.824-3.237
		C36.066,23.627,36.05,23.832,35.95,23.7"/>
    <path d="M34.302,24.837h-0.016c-1.297-0.011-2.3-1.366-2.342-1.424
		c-0.047-0.064-0.033-0.155,0.032-0.202c0.064-0.047,0.155-0.033,0.201,0.032c0.01,0.012,0.961,1.296,2.113,1.305h0.012
		c0.586,0,1.136-0.335,1.634-0.994l0.143-0.189l0.102,0.214c0.004,0.007,0.375,0.758,0.993,0.797
		c0.498,0.031,1.057-0.413,1.622-1.284c0.044-0.067,0.133-0.086,0.2-0.042s0.086,0.133,0.042,0.2
		c-0.635,0.978-1.269,1.453-1.884,1.414c-0.565-0.036-0.945-0.496-1.122-0.767C35.511,24.521,34.929,24.837,34.302,24.837"/>
    <path fill="#FDC305" d="M32.795,35.993c-0.798-1.911,0.104-4.107,2.015-4.906
		c1.911-0.798,4.107,0.104,4.905,2.015c0.799,1.911-0.103,4.108-2.014,4.906C35.791,38.806,33.593,37.904,32.795,35.993"/>
    <path fill="#111111" d="M41.233,31.504L38.1,32.813l1.15-5.636l-7.502,9.762l3.134-1.308l-1.15,5.635
		L41.233,31.504z M33.845,35.327l4.131-5.408l-0.806,4.019l1.967-0.82l-4.132,5.407l0.807-4.02L33.845,35.327z"/>
    <path fill="#111111" d="M31.4,33.176c-0.239-0.572,0.031-1.23,0.604-1.471
		c0.572-0.238,1.23,0.032,1.469,0.604c0.24,0.573-0.031,1.229-0.603,1.47C32.297,34.019,31.639,33.748,31.4,33.176"/>
    <path fill="#111111" d="M38.226,37.441c-0.169-0.405,0.022-0.87,0.427-1.039
		c0.405-0.169,0.87,0.021,1.039,0.427c0.169,0.404-0.022,0.87-0.427,1.039C38.859,38.037,38.395,37.845,38.226,37.441"/>
    <path fill="#111111" d="M39.601,35.532c-0.074-0.177,0.01-0.38,0.187-0.455
		c0.177-0.073,0.381,0.011,0.455,0.188c0.074,0.177-0.01,0.381-0.187,0.455C39.879,35.794,39.675,35.709,39.601,35.532"/>
    <path fill="#F06351" d="M45.876,21.16c0,0-2.554,2.254-5.084,5.212s-5.313,4.895-5.313,4.895
		c-0.217-0.528-1.626-1.514-1.626-1.514s-3.144-2.149-5.205-3.839c-1.184-0.971-2.355-2.175-3.138-3.024
		c-0.293-0.015-1.07-0.057-2.014-0.109c4.711,6.998,12.019,8.838,12.019,8.838c0.868-0.141,3.289-1.866,5.096-3.275
		c1.807-1.409,4.771-4.543,5.964-5.916c0.603-0.695,0.947-1.426,1.14-1.978C46.603,20.834,45.876,21.16,45.876,21.16"/>
    <polygon fill="#FDC305" points="65.218,3.498 56.763,12.942 55.545,10.944 63.693,0 	"/>
    <polygon fill="#FDC305" points="62.646,17.258 68.195,13.147 67.406,9.413 62.004,14.225 	"/>
    <polygon fill="#FDC305" points="59.924,49.366 66.053,52.552 69.063,50.206 62.369,47.462 	"/>
    <polygon fill="#FDC305" points="1.954,5.975 5.018,2.614 14.313,11.613 13.086,13.89 	"/>
    <polygon fill="#FDC305" points="7.382,16.283 2.68,13.154 0.275,17.014 5.43,19.417 	"/>
    <polygon fill="#FDC305" points="13.907,52.552 9.359,55.901 12.165,59.48 16.184,55.456 	"/>
    <path fill="#F06351" d="M25.926,27.973c0,0-3.807-1.446-5.205-1.831
		c-1.397-0.386-2.265-0.675-4.047,0.626c-1.784,1.302-1.735,3.855-1.735,3.855s0.433,0.963,0.482,1.446
		c0.047,0.482-1.205,0.434-2.024,0.434c-0.82,0-0.916-1.446-0.29-3.132c0.627-1.686,1.928-3.71,1.928-3.71
		C9.59,28.503,0,35.058,0,35.058s2.939-0.289,8.192,0.241c5.253,0.529,4.963,4.674,4.963,4.674s3.519-0.964,5.639-1.108
		c2.12-0.145,2.265,2.121,2.265,2.121l0.53,3.854c0,0,0.482-0.627,2.65-2.361c1.862-1.489,3.886-1.361,4.385-1.301c0,0,0.001,0,0,0
		L25.926,27.973z"/>
    <path fill="#111111" d="M85.657,42.035c-0.932-1.199-1.398-2.93-1.398-5.19v-7.507
		c0-2.312,0.462-4.06,1.385-5.242c0.924-1.182,2.507-1.773,4.751-1.773c2.139,0,3.654,0.522,4.543,1.566
		c0.888,1.044,1.333,2.542,1.333,4.491v1.76h-4.142v-1.941c0-0.622-0.031-1.122-0.091-1.502c-0.061-0.379-0.215-0.694-0.466-0.945
		c-0.249-0.249-0.634-0.375-1.151-0.375c-0.777,0-1.278,0.251-1.502,0.751c-0.224,0.501-0.336,1.234-0.336,2.2v9.526
		c0,0.985,0.129,1.718,0.388,2.201s0.742,0.726,1.45,0.726c0.725,0,1.19-0.246,1.398-0.738c0.206-0.492,0.31-1.221,0.31-2.188
		v-2.045h4.142v1.735c0,2.002-0.44,3.552-1.32,4.646c-0.881,1.098-2.399,1.645-4.556,1.645
		C88.167,43.834,86.59,43.235,85.657,42.035"/>
    <path fill="#111111" d="M101.914,22.582h4.736l4.039,20.968h-3.935l-0.776-4.608h-3.313l-0.803,4.608
		H97.85L101.914,22.582z M105.563,36.302l-1.268-8.439l-1.242,8.439H105.563z"/>
    <polygon fill="#111111" points="113.718,25.739 110.481,25.739 110.481,22.582 121.199,22.582 
		121.199,25.739 118.015,25.739 118.015,43.55 113.718,43.55 	"/>
    <polygon fill="#444444" points="129.612,22.581 137.74,22.581 137.74,24.756 132.536,24.756 
		132.536,31.693 136.756,31.693 136.756,33.765 132.536,33.765 132.536,41.453 137.792,41.453 137.792,43.549 129.612,43.549 	"/>
    <polygon fill="#444444" points="140.148,22.581 142.142,22.581 148.095,36.508 148.095,22.581 
		150.528,22.581 150.528,43.549 148.663,43.549 142.633,29.234 142.633,43.549 140.148,43.549 	"/>
    <polygon fill="#444444" points="153.815,22.581 161.943,22.581 161.943,24.756 156.739,24.756 
		156.739,31.693 160.959,31.693 160.959,33.765 156.739,33.765 156.739,41.453 161.995,41.453 161.995,43.549 153.815,43.549 	"/>
    <path fill="#444444" d="M164.352,22.582h4.22c2.123,0,3.68,0.436,4.672,1.307
		c0.992,0.872,1.488,2.291,1.488,4.258c0,2.692-0.863,4.323-2.59,4.893l2.977,10.511h-2.82l-2.744-9.837h-2.278v9.837h-2.924V22.582
		z M168.39,31.615c1.26,0,2.161-0.25,2.705-0.751c0.543-0.5,0.815-1.406,0.815-2.718c0-0.863-0.096-1.539-0.285-2.031
		c-0.19-0.493-0.527-0.855-1.009-1.088c-0.483-0.233-1.166-0.349-2.045-0.349h-1.296v6.937H168.39z"/>
    <path fill="#444444" d="M178.666,42.009c-0.845-1.199-1.269-2.98-1.269-5.346v-7.015
		c0-1.622,0.169-2.955,0.505-4c0.337-1.043,0.914-1.846,1.735-2.407c0.818-0.561,1.945-0.841,3.378-0.841
		c1.933,0,3.326,0.491,4.181,1.475s1.281,2.529,1.281,4.633v0.777h-2.744v-0.647c0-1-0.061-1.773-0.18-2.317
		c-0.122-0.543-0.377-0.953-0.765-1.229c-0.389-0.276-0.963-0.415-1.722-0.415c-0.811,0-1.416,0.186-1.812,0.558
		c-0.397,0.37-0.653,0.866-0.764,1.487c-0.113,0.621-0.169,1.45-0.169,2.486v7.766c0,1.604,0.194,2.757,0.582,3.456
		c0.39,0.698,1.136,1.048,2.239,1.048c1.087,0,1.834-0.379,2.24-1.139c0.405-0.76,0.608-1.978,0.608-3.649v-1.451h-2.666V33.17
		h5.306v10.38h-1.837l-0.286-2.407c-0.656,1.777-1.898,2.666-3.728,2.666C180.885,43.809,179.513,43.208,178.666,42.009"/>
    <polygon fill="#444444" points="194.689,36.146 190.16,22.582 192.878,22.582 196.088,32.703 
		199.247,22.582 201.99,22.582 197.485,36.146 197.485,43.55 194.689,43.55 	"/>
  </g>
</symbol><symbol id="logo-footer" viewBox="0 0 127.8 23.5">
  <g>
    <path fill="#111111" d="M1.6,21.5c-1-1.3-1.6-3.2-1.6-5.6V7.6c0-2.5,0.5-4.4,1.5-5.7
		C2.6,0.6,4.3,0,6.8,0c2.4,0,4.1,0.6,5.1,1.7c1,1.1,1.5,2.8,1.5,4.9v2H8.5V6.3c0-0.9-0.1-1.6-0.3-2C8,3.9,7.6,3.5,6.8,3.5
		c-0.7,0-1.2,0.2-1.4,0.7C5.2,4.7,5.1,5.5,5.1,6.4v10.7C5.1,18,5.2,18.7,5.5,19.2c0.2,0.5,0.7,0.7,1.4,0.7c0.7,0,1.1-0.2,1.3-0.7
		C8.4,18.7,8.5,18,8.5,17.1V14.7h4.9v2c0,2.1-0.5,3.8-1.5,5s-2.7,1.8-5.1,1.8C4.4,23.4,2.6,22.8,1.6,21.5"/>
    <path fill="#111111" d="M19.3,0.3H25l4.2,22.8h-4.6l-0.8-4.8h-3.3l-0.8,4.8H15L19.3,0.3z M23.4,15.3
		l-1.2-8.9L21,15.3H23.4z"/>
    <polygon fill="#111111" points="32.7,4.1 29.3,4.1 29.3,0.3 41.2,0.3 41.2,4 37.8,4 37.8,23.101 
		32.7,23.101 	"/>
    <polygon fill="#111111" points="50.3,0.3 59.1,0.3 59.1,2.7 53.4,2.7 53.4,10.2 58,10.2 58,12.5 
		53.4,12.5 53.4,20.9 59.1,20.9 59.1,23.2 50.2,23.2 50.2,0.3 	"/>
    <polygon fill="#111111" points="61.7,0.3 63.9,0.3 70.4,15.4 70.4,0.3 73,0.3 73,23.1 71,23.1 
		64.4,7.5 64.4,23.1 61.7,23.1 	"/>
    <polygon fill="#111111" points="76,0.3 84.8,0.3 84.8,2.7 79.1,2.7 79.1,10.2 83.7,10.2 83.7,12.5 
		79.1,12.5 79.1,20.9 84.8,20.9 84.8,23.2 76,23.2 	"/>
    <path fill="#111111" d="M87.4,0.3H92c2.3,0,4,0.5,5.1,1.4C98.2,2.6,98.7,4.2,98.7,6.3
		c0,2.9-0.9,4.7-2.8,5.3L99.1,23H96l-3-10.7h-2.5V23h-3.2V0.3H87.4z M91.8,10.1c1.4,0,2.3-0.3,2.9-0.8c0.6-0.5,0.899-1.5,0.899-3
		c0-0.9-0.1-1.7-0.3-2.2s-0.6-0.9-1.1-1.2c-0.5-0.3-1.3-0.4-2.2-0.4h-1.4V10h1.2V10.1z"/>
    <path fill="#111111" d="M102.7,21.4c-0.9-1.301-1.4-3.2-1.4-5.801V8c0-1.8,0.2-3.201,0.5-4.3
		c0.4-1.1,1-2,1.9-2.6c0.899-0.6,2.1-0.9,3.7-0.9c2.1,0,3.6,0.5,4.5,1.599c0.899,1.101,1.399,2.701,1.399,5v0.801h-3V6.9
		c0-1.101-0.1-1.9-0.2-2.5c-0.1-0.601-0.399-1-0.8-1.3c-0.399-0.301-1-0.5-1.899-0.5c-0.9,0-1.5,0.199-2,0.6
		c-0.5,0.4-0.7,0.9-0.801,1.599C104.5,5.5,104.4,6.4,104.4,7.5V16c0,1.7,0.199,3,0.6,3.8s1.2,1.101,2.4,1.101
		c1.199,0,2-0.4,2.399-1.2c0.4-0.8,0.7-2.101,0.7-4V14.1h-2.9v-2.3h5.801v11.3h-2l-0.301-2.6c-0.699,1.9-2.1,2.9-4.1,2.9
		C105.1,23.4,103.6,22.7,102.7,21.4"/>
    <polygon fill="#111111" points="119.8,15.1 114.9,0.399 117.9,0.399 121.4,11.399 124.8,0.399 
		127.8,0.399 122.9,15.1 122.9,23.1 119.9,23.1 119.9,15.1 	"/>
  </g>
</symbol><symbol id="logo-mobile" viewBox="0 0 191 38">
  <g>
    <path fill="#FDC305" d="M6.07,20.917l0.053-2.267c6.667-0.909,13.437-1.369,20.165-1.331
		c-0.01,0.606-0.028,1.213-0.058,1.821c0,0,2.922-1.349,6.036-1.814c-2.367-6.323-8.463-10.825-15.613-10.825
		c-8.323,0-15.221,6.102-16.466,14.076C2.359,20.714,6.07,20.917,6.07,20.917"/>
    <path fill="#FDC305" d="M27.238,24.421c-1.16,1.283-1.391,1.199-1.391,3.455
		c0,0.908,0.027,4.898,0.036,9.173c4.482-2.987,7.437-8.089,7.437-13.879c0-1.053-0.099-2.081-0.285-3.079
		C31.221,21.154,28.223,23.329,27.238,24.421"/>
    <path fill="#FDC305" d="M6.358,25.908c0,0-3.792-1.44-5.184-1.824C0.748,23.966,0.37,23.858,0,23.801
		c0.225,6.049,3.673,11.273,8.677,14.006L6.358,25.908z"/>
    <path fill="#F06351" d="M26.295,17.314c0.145-8.48-1.402-16.467-1.402-16.467s-0.144-1.296-0.864-0.241
		c-0.72,1.057-1.2,3.937-1.2,3.937C15.389,4.11,10.061,4.878,10.061,4.878c-0.816-2.735-2.208-3.936-2.88-3.647
		C6.509,1.52,6.46,4.543,6.46,4.543L6.129,18.646C12.795,17.736,19.566,17.276,26.295,17.314"/>
    <path d="M12.413,14.191c-0.046-0.091,1.022,0.681,1.406,0.921c0.384,0.24,0.61,0.423,0.61,0.591
		s-0.264,0.336-0.624,0.336c-0.36,0-0.912-0.12-0.96-0.264c0,0,0.6-0.024,0.936-0.024h0.288
		C14.069,15.751,12.677,14.719,12.413,14.191"/>
    <path d="M19.886,14.304c0,0-1.047,1.274-1.086,1.333s-0.165,0.341,0.185,0.292
		c0.352-0.048,1.111-0.224,1.219-0.282c0.107-0.059,0.069-0.196-0.116-0.176c-0.205,0.022-0.683,0.049-0.985,0.107l0.841-1.26
		C19.942,14.318,19.969,14.199,19.886,14.304"/>
    <path d="M16.753,20.396c0,0,0.81-0.352,1.089-1.008c0.279-0.657,0.036-0.912-0.441-0.978
		c-0.477-0.066-1.341-0.03-1.737,0.339s-0.342,0.729-0.054,0.954C15.898,19.927,16.457,20.305,16.753,20.396"/>
    <path fill="#F06351" d="M16.349,21.646c0,0-0.18,0.371-0.458,0.594
		c-0.244,0.193-0.567,0.364-1.018,0.387c-0.638,0.033-1.056-0.169-1.452-0.445c-0.202-0.142-0.395-0.255-0.532-0.441
		c-0.157-0.183-0.356-0.253-0.356-0.253s0.747,4.099,2.566,4.747c1.817,0.647,2.144-0.75,2.2-1.134c0.048-0.325,0-2.082-0.82-3.224
		C16.464,21.574,16.448,21.777,16.349,21.646"/>
    <path d="M14.708,22.779h-0.016c-1.293-0.011-2.291-1.361-2.333-1.418
		c-0.047-0.065-0.032-0.155,0.032-0.202s0.154-0.032,0.201,0.032c0.01,0.013,0.956,1.291,2.104,1.3h0.012
		c0.584,0,1.132-0.333,1.627-0.99l0.143-0.188l0.102,0.213c0.004,0.007,0.373,0.756,0.989,0.795c0.496,0.03,1.053-0.412,1.616-1.279
		c0.043-0.065,0.132-0.085,0.199-0.042c0.065,0.043,0.085,0.134,0.042,0.199c-0.633,0.974-1.265,1.448-1.877,1.409
		c-0.563-0.036-0.942-0.495-1.117-0.765C15.913,22.464,15.333,22.779,14.708,22.779"/>
    <path fill="#F06351" d="M26.236,19.117c0,0-2.544,2.245-5.063,5.191
		c-2.521,2.947-5.292,4.876-5.292,4.876c-0.216-0.525-1.62-1.508-1.62-1.508s-3.132-2.14-5.184-3.824
		c-1.179-0.967-2.346-2.166-3.126-3.011c-0.292-0.016-1.065-0.057-2.006-0.109c4.692,6.97,11.972,8.803,11.972,8.803
		c0.864-0.141,3.276-1.858,5.076-3.263c1.801-1.402,4.752-4.524,5.94-5.892c0.6-0.693,0.944-1.42,1.135-1.971
		C26.96,18.792,26.236,19.117,26.236,19.117"/>
  </g>
  <g>
    <path fill="#111111" d="M91.723,29.49c-0.814-1.005-1.225-2.456-1.225-4.353v-6.339
		c0-1.94,0.405-3.406,1.215-4.397c0.808-0.991,2.188-1.487,4.144-1.487c1.867,0,3.19,0.441,3.97,1.325
		c0.778,0.883,1.168,2.134,1.168,3.755v1.52h-3.857v-1.758c0-0.68-0.074-1.201-0.221-1.563c-0.149-0.361-0.501-0.543-1.06-0.543
		c-0.558,0-0.926,0.191-1.103,0.574c-0.176,0.384-0.264,0.916-0.264,1.597v8.273c0,0.692,0.092,1.226,0.275,1.595
		c0.184,0.369,0.547,0.554,1.091,0.554c0.543,0,0.893-0.185,1.048-0.554c0.154-0.369,0.232-0.902,0.232-1.595v-1.847h3.857v1.52
		c0,1.649-0.39,2.935-1.168,3.854C99.048,30.541,97.725,31,95.857,31C93.917,31,92.54,30.497,91.723,29.49"/>
    <path fill="#111111" d="M105.696,13.152h4.495l3.331,17.587h-3.638l-0.596-3.712h-2.623l-0.619,3.712
		h-3.725L105.696,13.152z M108.914,24.703l-0.947-6.859l-0.949,6.859H108.914z"/>
    <polygon fill="#111111" points="116.25,16.041 113.561,16.041 113.561,13.152 122.887,13.152 
		122.887,16.041 120.219,16.041 120.219,30.739 116.25,30.739 	"/>
    <polygon fill="#111111" points="130.031,13.152 136.955,13.152 136.955,14.978 132.521,14.978 
		132.521,20.797 136.115,20.797 136.115,22.533 132.521,22.533 132.521,28.981 136.998,28.981 136.998,30.739 130.031,30.739 	"/>
    <polygon fill="#111111" points="138.988,13.152 140.685,13.152 145.758,24.834 145.758,13.152 
		147.83,13.152 147.83,30.739 146.241,30.739 141.104,18.732 141.104,30.739 138.988,30.739 	"/>
    <polygon fill="#111111" points="150.311,13.152 157.235,13.152 157.235,14.978 152.802,14.978 
		152.802,20.797 156.396,20.797 156.396,22.533 152.802,22.533 152.802,28.981 157.279,28.981 157.279,30.739 150.311,30.739 	"/>
    <path fill="#111111" d="M159.269,13.152h3.592c1.809,0,3.136,0.365,3.981,1.098
		c0.844,0.73,1.268,1.92,1.268,3.571c0,2.259-0.736,3.625-2.206,4.103l2.535,8.815h-2.402l-2.337-8.251h-1.939v8.251h-2.491V13.152z
		 M162.706,20.73c1.073,0,1.843-0.21,2.306-0.63c0.464-0.42,0.693-1.179,0.693-2.279c0-0.724-0.081-1.292-0.242-1.704
		s-0.447-0.717-0.859-0.912s-0.993-0.293-1.743-0.293h-1.101v5.818H162.706z"/>
    <path fill="#111111" d="M171.311,29.447c-0.721-1.006-1.081-2.499-1.081-4.483v-5.882
		c0-1.361,0.145-2.479,0.432-3.357c0.286-0.875,0.778-1.547,1.477-2.018c0.697-0.471,1.656-0.705,2.877-0.705
		c1.647,0,2.833,0.412,3.563,1.237c0.726,0.824,1.09,2.12,1.09,3.886v0.651h-2.336v-0.542c0-0.84-0.053-1.487-0.155-1.943
		c-0.103-0.455-0.32-0.8-0.65-1.031c-0.331-0.232-0.819-0.348-1.467-0.348c-0.69,0-1.205,0.155-1.544,0.467
		c-0.338,0.312-0.555,0.727-0.649,1.248c-0.096,0.521-0.145,1.217-0.145,2.086v6.512c0,1.347,0.166,2.313,0.496,2.898
		c0.331,0.586,0.968,0.879,1.908,0.879c0.926,0,1.562-0.318,1.908-0.955c0.344-0.636,0.518-1.657,0.518-3.061v-1.216h-2.271v-1.737
		h4.519v8.706h-1.563l-0.243-2.019c-0.561,1.49-1.618,2.236-3.175,2.236C173.2,30.957,172.031,30.453,171.311,29.447"/>
    <polygon fill="#111111" points="184.78,24.53 180.924,13.152 183.238,13.152 185.972,21.643 
		188.663,13.152 191,13.152 187.164,24.53 187.164,30.739 184.78,30.739 	"/>
  </g>
</symbol><symbol id="logo-tablet" viewBox="0 0 172.264 57.07">
  <g>
    <path fill="#FDC305" d="M59.625,21.739C54.196,8.746,39.263,2.613,26.27,8.042
		C13.277,13.469,7.145,28.403,12.573,41.396c3.57,8.548,11.254,14.125,19.793,15.397c-0.577-2.081-1.157-4.382-1.684-6.826
		c1.492,0.988,3.075,1.797,4.748,2.544c-0.006,0.003-0.013,0.007-0.02,0.01c0,0,0.118,2.147,0.278,4.547
		c1.766,0.028,3.549-0.127,5.324-0.477c-0.042-0.157-0.043-0.403,0.012-0.759c0.285-1.854,1.087-5.213,1.243-7.375
		c1.123-1.06,2.128-2.316,2.887-3.697c-0.001,0.012-0.002,0.024-0.004,0.037c-0.018,0.143-0.036,0.287-0.054,0.431
		c-0.552,4.246-1.697,8.775-2.393,10.028c-0.242,0.437-0.544,0.855-0.826,1.148c1.362-0.318,2.716-0.753,4.05-1.312
		C58.92,49.665,65.053,34.731,59.625,21.739 M58.153,25.508c-0.432,0.432-1.344,0.72-1.488-0.576
		c-0.143-1.295-0.192-2.207-0.192-2.207s-1.919-3.406-2.638-3.454c-0.72-0.048-5.806,3.454-7.15,4.942
		c-1.159,1.283-1.391,1.199-1.391,3.454c0,1.706,0.219,8.132,0.098,13.051c0,0-2.161,0.576-8.111,2.159
		c-5.949,1.584-7.773,1.776-7.773,1.776l-1.007-5.807c0,0-0.001,0-0.003-0.001c-0.005-0.001-0.018-0.003-0.039-0.006
		c-0.001,0-0.002,0-0.002,0c-0.011-0.002-0.022-0.004-0.035-0.005c-0.015-0.002-0.031-0.005-0.049-0.007L25.814,25.7
		c0,0-3.791-1.44-5.182-1.823c-1.392-0.384-2.255-0.672-4.03,0.624c-1.776,1.295-1.728,3.838-1.728,3.838s0.432,0.96,0.48,1.44
		c0.048,0.479-1.2,0.431-2.015,0.431c-0.816,0-0.912-1.439-0.288-3.119c0.623-1.679,1.919-3.694,1.919-3.694s1.2-2.255,2.063-2.879
		c0,0,0.144-0.336,1.248-0.24c1.103,0.096,7.245,0.432,7.245,0.432l0.053-2.265c6.663-0.908,13.431-1.368,20.157-1.33
		c-0.011,0.605-0.029,1.212-0.058,1.82c0,0,4.366-2.015,8.109-1.968c0,0,0.431-0.047,0.767,0.384
		c0.336,0.432,2.399,2.975,2.639,3.359c0.24,0.384,1.2,1.727,1.823,3.023C59.016,23.733,58.585,25.076,58.153,25.508"/>
    <path fill="#F06351" d="M56.21,19.427c0.472,0.595,0.883,1.124,0.982,1.283
		c0.241,0.384,1.2,1.727,1.824,3.023c0,0-0.432,1.343-0.864,1.775s-1.343,0.719-1.487-0.576c-0.144-1.296-0.192-2.207-0.192-2.207
		s-1.919-3.407-2.639-3.455c-0.72-0.048-5.806,3.455-7.149,4.942c-1.16,1.284-1.392,1.2-1.392,3.455
		c0,1.495,0.169,6.621,0.129,11.177c1.801,0.208,4.447,0.707,5.245,1.874c0,0-0.288-7.149,7.773-3.407c0,0,0.288-9.74,11.419-7.245
		C69.859,30.066,64.216,23.137,56.21,19.427"/>
    <path fill="#F06351" d="M45.735,17.115c0.145-8.477-1.401-16.461-1.401-16.461s-0.144-1.295-0.864-0.24
		c-0.719,1.056-1.199,3.935-1.199,3.935c-7.437-0.432-12.763,0.335-12.763,0.335c-0.816-2.735-2.207-3.934-2.879-3.646
		c-0.672,0.288-0.72,3.311-0.72,3.311l-0.33,14.096C32.242,17.537,39.01,17.077,45.735,17.115"/>
    <path fill="#E55645" d="M45.154,44.761c0.126-1.062,0.2-2.476,0.238-4.042c0,0-2.161,0.574-8.111,2.158
		c-5.949,1.583-7.773,1.775-7.773,1.775l1.104,4.99c0.023,0.108,0.046,0.217,0.07,0.325c1.492,0.986,3.075,1.797,4.748,2.544
		c4.354-2.155,6.841-4.117,6.841-4.117c-0.001,0.021-0.003,0.042-0.004,0.062C43.39,47.397,44.395,46.142,45.154,44.761"/>
    <path d="M31.859,13.993c-0.046-0.091,1.021,0.68,1.405,0.92c0.384,0.24,0.61,0.423,0.61,0.591
		S33.61,15.84,33.25,15.84s-0.912-0.12-0.959-0.264c0,0,0.599-0.024,0.935-0.024h0.288C33.514,15.552,32.124,14.521,31.859,13.993"/>
    <path d="M39.329,14.106c0,0-1.046,1.273-1.085,1.332c-0.04,0.059-0.166,0.341,0.185,0.293
		c0.35-0.049,1.11-0.225,1.217-0.283c0.108-0.059,0.07-0.196-0.116-0.175c-0.205,0.021-0.682,0.048-0.985,0.106l0.841-1.26
		C39.386,14.119,39.412,14.001,39.329,14.106"/>
    <path d="M36.198,20.194c0,0,0.81-0.351,1.089-1.007c0.279-0.657,0.036-0.912-0.441-0.978
		s-1.34-0.03-1.736,0.339s-0.342,0.729-0.054,0.954C35.344,19.726,35.901,20.104,36.198,20.194"/>
    <path fill="#F06351" d="M35.793,21.445c0,0-0.179,0.372-0.458,0.594
		c-0.243,0.193-0.567,0.363-1.017,0.386c-0.638,0.033-1.055-0.169-1.451-0.445c-0.203-0.141-0.395-0.254-0.532-0.442
		c-0.157-0.181-0.356-0.252-0.356-0.252s0.747,4.097,2.564,4.745c1.817,0.647,2.143-0.749,2.2-1.133c0.048-0.326,0-2.081-0.82-3.222
		C35.908,21.373,35.893,21.576,35.793,21.445"/>
    <path d="M34.153,22.577h-0.016c-1.292-0.011-2.29-1.36-2.332-1.418
		c-0.047-0.064-0.032-0.154,0.032-0.201c0.064-0.047,0.154-0.032,0.201,0.032c0.01,0.013,0.956,1.29,2.103,1.299h0.012
		c0.584,0,1.131-0.333,1.627-0.989l0.142-0.189l0.103,0.213c0.003,0.007,0.372,0.755,0.987,0.794
		c0.497,0.031,1.053-0.411,1.616-1.278c0.043-0.066,0.132-0.085,0.199-0.042c0.067,0.043,0.085,0.133,0.042,0.199
		c-0.633,0.974-1.264,1.447-1.876,1.408c-0.563-0.036-0.942-0.495-1.117-0.764C35.357,22.263,34.778,22.577,34.153,22.577"/>
    <path fill="#111111" d="M41.054,29.214l-3.12,1.304l1.145-5.612l-7.469,9.72l3.12-1.304l-1.145,5.612
		L41.054,29.214z M33.698,33.021l4.113-5.385l-0.803,4.002l1.958-0.818l-4.113,5.385l0.803-4.002L33.698,33.021z"/>
    <path fill="#F06351" d="M45.678,18.916c0,0-2.543,2.244-5.062,5.189
		c-2.519,2.945-5.29,4.874-5.29,4.874c-0.216-0.526-1.619-1.508-1.619-1.508s-3.131-2.138-5.182-3.822
		c-1.179-0.967-2.346-2.165-3.125-3.01c-0.292-0.015-1.065-0.057-2.005-0.109c4.69,6.968,11.967,8.8,11.967,8.8
		c0.864-0.141,3.275-1.859,5.074-3.261c1.799-1.403,4.75-4.523,5.938-5.891c0.6-0.692,0.943-1.419,1.135-1.969
		C46.4,18.591,45.678,18.916,45.678,18.916"/>
    <path fill="#F06351" d="M25.813,25.7c0,0-3.791-1.439-5.182-1.823c-1.391-0.384-2.255-0.672-4.03,0.624
		c-1.775,1.295-1.727,3.838-1.727,3.838s0.431,0.96,0.48,1.44c0.047,0.479-1.2,0.431-2.016,0.431s-0.911-1.439-0.288-3.118
		c0.624-1.68,1.92-3.695,1.92-3.695C9.548,26.228,0,32.753,0,32.753s2.926-0.287,8.156,0.24c5.23,0.527,4.942,4.653,4.942,4.653
		s3.503-0.959,5.614-1.103c2.111-0.145,2.255,2.111,2.255,2.111l0.528,3.838c0,0,0.48-0.623,2.639-2.352
		c1.853-1.482,3.868-1.355,4.366-1.295L25.813,25.7z"/>
    <path fill="#111111" d="M89.559,37.121c-0.663-0.854-0.994-2.082-0.994-3.69v-5.337
		c0-1.644,0.328-2.886,0.985-3.726c0.656-0.841,1.782-1.261,3.377-1.261c1.521,0,2.597,0.371,3.229,1.113
		c0.631,0.742,0.947,1.807,0.947,3.193v1.251h-2.944v-1.379c0-0.442-0.021-0.798-0.063-1.068c-0.044-0.27-0.154-0.493-0.332-0.672
		c-0.178-0.177-0.451-0.267-0.819-0.267c-0.552,0-0.908,0.178-1.066,0.534c-0.16,0.356-0.239,0.877-0.239,1.565v6.771
		c0,0.7,0.092,1.222,0.276,1.564c0.184,0.344,0.526,0.516,1.029,0.516c0.517,0,0.848-0.175,0.994-0.524
		c0.147-0.351,0.221-0.868,0.221-1.556v-1.454h2.944v1.233c0,1.423-0.313,2.525-0.938,3.304c-0.626,0.779-1.706,1.168-3.239,1.168
		C91.344,38.399,90.222,37.974,89.559,37.121"/>
    <path fill="#111111" d="M101.116,23.291h3.368l2.87,14.907h-2.797l-0.553-3.275h-2.355l-0.569,3.275
		h-2.854L101.116,23.291z M103.711,33.045l-0.902-6l-0.883,6H103.711z"/>
    <polygon fill="#111111" points="109.508,25.536 107.207,25.536 107.207,23.291 114.826,23.291 
		114.826,25.536 112.563,25.536 112.563,38.197 109.508,38.197 	"/>
    <polygon fill="#444444" points="120.808,23.291 126.586,23.291 126.586,24.836 122.887,24.836 
		122.887,29.769 125.887,29.769 125.887,31.24 122.887,31.24 122.887,36.707 126.623,36.707 126.623,38.197 120.808,38.197 	"/>
    <polygon fill="#444444" points="128.298,23.291 129.715,23.291 133.947,33.191 133.947,23.291 
		135.678,23.291 135.678,38.197 134.353,38.197 130.064,28.02 130.064,38.197 128.298,38.197 	"/>
    <polygon fill="#444444" points="138.015,23.291 143.794,23.291 143.794,24.836 140.094,24.836 
		140.094,29.769 143.094,29.769 143.094,31.24 140.094,31.24 140.094,36.707 143.83,36.707 143.83,38.197 138.015,38.197 	"/>
    <path fill="#444444" d="M145.505,23.291h3c1.509,0,2.616,0.31,3.322,0.929
		c0.705,0.62,1.058,1.629,1.058,3.028c0,1.914-0.612,3.073-1.841,3.478l2.117,7.472h-2.007l-1.95-6.993h-1.62v6.993h-2.079V23.291z
		 M148.376,29.713c0.896,0,1.537-0.178,1.923-0.534c0.386-0.356,0.58-1,0.58-1.932c0-0.614-0.068-1.095-0.203-1.445
		c-0.135-0.35-0.375-0.608-0.717-0.773c-0.344-0.165-0.829-0.248-1.454-0.248h-0.921v4.932H148.376z"/>
    <path fill="#444444" d="M155.682,37.103c-0.601-0.854-0.901-2.119-0.901-3.801v-4.987
		c0-1.153,0.12-2.102,0.358-2.844c0.24-0.742,0.65-1.312,1.233-1.711c0.582-0.399,1.384-0.598,2.402-0.598
		c1.374,0,2.364,0.349,2.972,1.048c0.608,0.7,0.911,1.798,0.911,3.295v0.552h-1.951v-0.46c0-0.711-0.043-1.261-0.128-1.647
		c-0.086-0.387-0.267-0.678-0.543-0.874c-0.276-0.196-0.686-0.295-1.224-0.295c-0.577,0-1.007,0.132-1.288,0.396
		c-0.282,0.263-0.464,0.616-0.543,1.058c-0.081,0.441-0.12,1.031-0.12,1.767v5.521c0,1.141,0.138,1.96,0.414,2.457
		s0.807,0.745,1.592,0.745c0.772,0,1.304-0.27,1.592-0.811c0.288-0.54,0.432-1.405,0.432-2.594V32.29h-1.895v-1.472h3.772v7.379
		h-1.307l-0.202-1.711c-0.466,1.263-1.35,1.895-2.65,1.895C157.259,38.381,156.284,37.956,155.682,37.103"/>
    <polygon fill="#444444" points="167.073,32.935 163.854,23.29 165.786,23.29 168.067,30.486 
		170.313,23.29 172.264,23.29 169.062,32.935 169.062,38.197 167.073,38.197 	"/>
  </g>
</symbol><symbol id="social--fb" viewBox="0 0 13.518 27.749">
<g>
	
	<path d="M9.531,27.749H2.715V14.845H0V8.471h2.629c-0.202-2.888,0.298-5,1.519-6.444
		C5.187,0.798,6.731,0.116,8.735,0L13.518,0V6.15H9.763C9.597,6.465,9.512,7.244,9.511,8.471h3.979v6.375H9.531V27.749z
		 M4.215,26.249h3.816V13.345h3.957V9.971H8.035L8.019,9.237c-0.044-2.04,0.003-3.784,1.008-4.46L9.216,4.65h2.801V1.5H8.777
		c-1.557,0.092-2.71,0.582-3.484,1.497c-1.041,1.231-1.41,3.297-1.099,6.144l0.092,0.832H1.5v3.375h2.715V26.249z"/>
</g>
</symbol><symbol id="social--inst" viewBox="0 0 22.987 23">
<g>
	
	<path d="M16.989,1.499c2.479,0,4.498,2.02,4.498,4.501v11c0,2.48-2.019,4.5-4.498,4.5
		H5.997c-2.48,0-4.498-2.02-4.498-4.5V6c0-2.481,2.018-4.5,4.498-4.5L16.989,1.499 M16.989,0H5.997C2.697,0,0,2.699,0,6v11.001
		C0,20.299,2.697,23,5.997,23h10.995c3.296,0,5.995-2.701,5.995-6V6C22.987,2.699,20.288,0,16.989,0"/>
	<path d="M11.493,7.078c2.439,0,4.429,1.985,4.429,4.428c0,2.44-1.989,4.43-4.429,4.43
		c-2.443,0-4.428-1.988-4.428-4.43C7.065,9.063,9.05,7.078,11.493,7.078 M11.493,5.578c-3.273,0-5.928,2.654-5.928,5.928
		c0,3.274,2.654,5.927,5.928,5.927c3.273,0,5.926-2.652,5.926-5.927C17.419,8.232,14.767,5.578,11.493,5.578"/>
	<path d="M17.634,4.038c0.739,0,1.341,0.601,1.341,1.341
		c0,0.741-0.602,1.341-1.341,1.341c-0.741,0-1.343-0.6-1.343-1.341C16.291,4.639,16.893,4.038,17.634,4.038"/>
</g>
</symbol><symbol id="social--vk" viewBox="0 0 30.003 15.759">
<g>
	
	<path d="M23.939,15.759c-0.387,0-1.171-0.082-2.076-0.632c-0.642-0.386-1.223-0.969-1.784-1.532
		c-0.438-0.44-1.171-1.177-1.446-1.177c-0.269,0.074-0.48,0.921-0.477,1.568c0.004,0.113-0.001,0.774-0.467,1.213
		c-0.426,0.4-1.089,0.486-1.217,0.498l-1.926,0.008c-0.967,0-4.358-0.219-7.429-3.021C3.443,9.325,0.282,2.886,0.149,2.614
		c-0.197-0.462-0.248-1.066,0.152-1.482C0.693,0.719,1.382,0.66,1.66,0.653l4.083-0.025l0.115,0.009
		c0.091,0.014,0.567,0.094,0.957,0.349c0.388,0.246,0.59,0.651,0.626,0.73c0.01,0.021,0.649,1.432,1.475,2.683
		c1.312,1.991,1.896,2.456,2.103,2.562c0.188-0.417,0.277-1.699,0.187-2.87c0.001-0.493-0.101-1.098-0.252-1.278
		c-0.112-0.134-0.426-0.253-0.778-0.294L9.455,1.828c-0.096-0.659,0.635-1.226,1.149-1.446C11.34,0.065,12.396,0,13.75,0l0.71,0.005
		c1.235,0.012,1.622,0.081,2.15,0.191c1.701,0.361,1.639,1.729,1.566,3.312c-0.021,0.464-0.046,1.001-0.046,1.62
		c0,0.152-0.006,0.312-0.012,0.479c-0.011,0.381-0.032,1.039,0.093,1.305c0.22-0.145,0.854-0.665,2.072-2.483
		c0.784-1.165,1.4-2.539,1.518-2.803l0.001-0.001c0.183-0.43,0.607-0.941,1.612-0.946l4.275-0.024
		c0.011-0.003,0.171-0.016,0.377-0.016c0.979,0,1.596,0.287,1.832,0.854c0.268,0.65,0.169,1.656-2.355,4.605
		c-0.369,0.432-0.696,0.804-0.981,1.127c-0.598,0.678-1.216,1.379-1.237,1.595c0.053,0.168,0.662,0.664,1.252,1.145
		c1.531,1.247,2.529,2.265,3.033,3.073c0.522,0.759,0.429,1.329,0.258,1.677c-0.424,0.864-1.637,0.974-1.877,0.984l-3.79,0.048
		C24.147,15.753,24.057,15.759,23.939,15.759 M18.632,10.919c0.898,0,1.683,0.786,2.511,1.618c0.497,0.5,1.011,1.016,1.496,1.307
		c0.727,0.439,1.315,0.421,1.397,0.412l0.104-0.009l3.805-0.048c0.171-0.011,0.412-0.072,0.537-0.135
		c-0.02-0.04-0.049-0.095-0.099-0.167c-0.449-0.719-1.389-1.66-2.687-2.719c-1.184-0.963-1.801-1.465-1.865-2.244
		c-0.065-0.805,0.493-1.439,1.608-2.703c0.279-0.318,0.603-0.685,0.966-1.109c1.56-1.821,1.957-2.641,2.059-2.956
		c-0.171-0.029-0.647-0.021-0.679-0.019l-4.36,0.029c-0.19,0.001-0.249,0.034-0.249,0.036c-0.177,0.414-0.813,1.811-1.645,3.05
		c-1.895,2.82-2.785,3.2-3.407,3.201c-0.204,0-0.396-0.05-0.568-0.149c-1.003-0.568-0.963-1.833-0.935-2.756
		c0.005-0.149,0.011-0.295,0.011-0.432c0-0.645,0.024-1.207,0.048-1.688c0.076-1.68,0.016-1.692-0.379-1.776
		c-0.409-0.086-0.705-0.147-1.856-0.16l-0.693-0.004c-0.624,0-1.343,0.014-1.906,0.098c0.092,0.073,0.18,0.156,0.259,0.251
		c0.588,0.704,0.604,1.951,0.601,2.194c0.13,1.646,0.061,3.796-1.018,4.313c-0.191,0.092-0.392,0.137-0.597,0.137
		c-0.926,0-1.854-0.886-3.425-3.267c-0.895-1.354-1.56-2.824-1.587-2.888C6.067,2.316,6.024,2.261,6.003,2.244
		C5.92,2.19,5.771,2.147,5.684,2.127L1.683,2.152c-0.021,0.001-0.045,0.002-0.07,0.005c0.591,1.189,3.426,6.592,6.519,9.418
		c2.74,2.503,5.826,2.63,6.417,2.63l1.852-0.004c0.045-0.01,0.217-0.062,0.268-0.099c-0.018,0.018-0.01-0.054-0.01-0.098
		c-0.003-0.266,0.012-2.596,1.578-3.034C18.362,10.938,18.495,10.919,18.632,10.919"/>
</g>
</symbol><symbol id="program--cat" viewBox="0 0 367.603 512">
<g>
	
	<path d="M79.587,0h2c3.575,1.857,5.713,4.978,7.548,8.416c3.078,5.771,5.272,11.898,6.915,18.179
		c1.118,4.273,3.43,6.318,7.777,7.072c12.275,2.126,21.222,9.128,27.467,19.755c3.896,6.629,6.925,13.662,9.687,20.823
		c7.497,19.439,13.226,39.483,20.215,59.093c3.338,9.365,3.475,9.242,13.484,9.339c11.896,0.115,11.063-1.861,11.243,11.328
		c0.058,4.181-1.26,6.291-5.672,6.078c-1.367-0.065-3.423-0.69-3.939,1.138c-0.429,1.52,1.257,2.576,2.266,3.644
		c6.263,6.63,14.106,10.496,22.781,12.841c9.966,2.694,20.126,4.799,29.888,8.092c24.898,8.401,47.984,20.127,65.925,39.976
		c10.952,12.118,18.48,26.483,24.884,41.387c19.504,45.409,28.638,93.469,35.91,141.981c3.405,22.726,5.804,45.578,7.661,68.472
		c0.929,11.435,2.13,22.878,1.961,34.386h-175c-0.617-2.436,0.389-4.612,1.216-6.762c3.563-9.257,10.867-14.082,20.096-16.217
		c3.646-0.846,4.11-1.943,1.845-4.829c-3.847-4.897-6.374-10.535-8.354-16.392c-8.575-25.368-11.887-51.845-16.023-78.113
		c-3.158-20.053-7.873-39.457-18.26-57.152c-7.68-13.082-17.306-24.416-29.381-33.632c-4.363-3.329-4.501-3.33-5.248,2.322
		c-0.499,3.783-0.63,7.619-0.863,11.436c-1.517,24.955-1.382,49.898,0.906,74.801c1.784,19.418,2.492,38.813,0.804,58.292
		c-1.945,22.447-6.058,44.478-11.737,66.246h-70c1.698-11.578,11.05-21.248,22.271-23.441c6.739-1.317,13.274-0.43,19.786,1.067
		c3.141,0.723,4.453,0.156,4.718-3.427c2.079-28.071,0.659-55.974-5.048-83.499c-6.594-31.803-12.804-63.67-16.099-95.98
		c-1.368-13.422-5.43-25.474-11.943-37.093c-6.269-11.185-11.727-22.822-17.882-34.073c-4.878-8.917-5.806-17.929-2.179-27.394
		c1.429-3.73,2.784-7.51,4.526-11.095c5.021-10.336,10.35-20.523,15.302-30.891c2.561-5.361,2.033-5.933-3.725-6.057
		c-8.565-0.183-8.567-0.183-8.702-8.673c-0.019-1.166,0.029-2.333,0.006-3.499c-0.073-3.633,1.344-5.641,5.33-5.345
		c2.652,0.196,5.33,0.001,7.995,0.05c3.634,0.069,4.681-1.52,3.791-5.039c-3.043-12.035-14.596-21.902-26.973-23.414
		c-11.757-1.436-23.252,0.232-34.721,2.275c-3.408,0.608-5.285-0.138-6.572-3.376c-2.09-5.261-4.445-10.418-6.766-15.584
		c-0.97-2.157-1.047-4.05,0.488-6.043c16.688-21.67,34.874-41.698,59.711-54.397c2.606-1.332,4.051-3.033,4.662-5.941
		c1.576-7.497,3.417-14.938,6.657-21.947C73.922,5.502,75.883,2.061,79.587,0"/>
</g>
</symbol><symbol id="program--panther" viewBox="0 0 454.054 188.36">
<g>
	<path d="M417.005,19.557c4.077-6.327,9.188-11.443,15.388-15.574c3.365-2.242,5.509-2.237,7.3,1.858
		c2.855,6.534,5.107,13.063,3.061,20.282c-0.74,2.612-0.202,4.851,1.422,7.026c1.893,2.533,3.574,5.224,5.324,7.861
		c4.281,6.452,6.023,13.25,3.126,20.828c-1.266,3.312-1.398,6.751-0.686,10.316c0.65,3.261,0.528,6.633-0.002,9.953
		c-0.867,5.433-3.678,9.236-9.153,10.676c-4.312,1.134-8.056,3.104-10.865,6.666c-0.729,0.924-1.659,1.639-2.896,1.806
		c-3.995,0.54-14.155-8.473-14.144-12.552c0.002-0.666,0.04-1.333,0.053-1.999c0.224-12.049-0.498-13.217-11.554-18.045
		c-2.325-1.016-4.54-2.163-6.132-4.165c-2.194-2.76-4.861-2.506-7.652-1.335c-2.825,1.186-4.692,3.026-4.316,6.478
		c0.883,8.118,1.223,16.267,1.184,24.435c-0.005,0.951,0.259,2.065,0.791,2.831c10.487,15.111,14.438,32.883,19.668,49.993
		c3.991,13.057,11.505,20.154,25.012,21.107c2.149,0.152,4.278,0.653,6.405,1.05c6.045,1.123,9.666,4.933,11.446,10.615
		c2.216,7.075,1.112,8.581-6.254,8.631c-7.331,0.05-14.664-0.038-21.994,0.059c-2.965,0.039-5.488-0.539-7.712-2.732
		c-3.262-3.215-7.537-4.858-11.642-6.678c-4.504-1.997-8.688-4.509-11.37-8.676c-3.752-5.83-8.855-10.356-13.633-15.217
		c-9.574-9.741-19.487-19.147-28.544-29.402c-6.519-7.381-10.788-15.581-10.705-25.617c0.026-3.151-0.79-4.468-4.024-2.881
		c-1.034,0.506-2.214,0.983-3.335,1.002c-9.535,0.152-14.198,5.844-17.576,14.059c-2.964,7.209-7.195,13.892-10.764,20.859
		c-2.378,4.639-3.92,9.538-3.914,14.834c0.007,7.913,1.868,10.754,9.33,13.419c4.625,1.65,9.073,3.38,11.603,8.021
		c2.858,5.243,2.018,6.858-3.849,6.918c-7.665,0.077-15.331-0.037-22.994,0.062c-2.981,0.04-4.987-0.993-6.443-3.702
		c-1.89-3.514-4.156-6.826-6.253-10.23c-3.477-5.648-4.889-11.419-2.534-18.063c2.047-5.774,1.123-11.963,0.271-17.844
		c-1.271-8.759,0.112-16.581,5.844-23.429c1.869-2.232,2.112-3.463-1.336-4.11c-14.006-2.631-27.245-7.57-40.059-13.717
		c-0.151-0.072-0.304-0.141-0.458-0.201c-10.817-4.155-12.899-3.225-15.938,7.673c-2.639,9.459-5.386,18.913-7.445,28.504
		c-2.276,10.602,0.384,20.846,3.79,30.857c1.323,3.887,5.283,3.722,8.319,4.614c6.649,1.949,12.375,4.763,15.279,11.644
		c2.257,5.347,1.964,6.07-3.69,6.117c-5.832,0.048-11.685-0.288-17.49,0.099c-5.523,0.37-9.644-1.744-14.149-4.754
		c-16.295-10.883-20.921-27.131-22.229-45.22c-0.812-11.231-6.732-19.999-13.919-28.124c-1.396-1.578-2.665-2.229-4.694-0.942
		c-7.095,4.502-15.086,6.986-22.871,9.936c-16.371,6.202-30.572,15.458-41.313,29.538c-3.907,5.121-6.6,10.801-7.554,17.205
		c-0.902,6.048,0.795,8.601,6.639,10.322c6.469,1.907,9.033,5.038,9.766,11.568c0.31,2.762-0.69,4.185-3.469,4.186
		c-9.163,0.005-18.327-0.024-27.49-0.056c-2.028-0.007-3.331-1.205-4.54-2.695c-4.376-5.394-6.429-11.642-6.607-18.477
		c-0.304-11.699,1.07-23.271,3.132-34.761c1.273-7.092,4.617-12.91,11.359-16.09c20.017-9.439,30.478-27.13,39.915-45.775
		c1.903-3.76,0.218-4.329-3.043-4.038c-9.794,0.876-18.185,5.221-26.025,10.729c-10.11,7.103-19.21,15.433-28.225,23.855
		c-9.871,9.221-21.08,15.629-34.916,16.6C10.66,109.189-1.086,95.688,0.079,73.235C0.476,65.585,3.05,58.508,8.3,52.736
		c4.049-4.451,8.971-6.884,15.197-5.081c5.174,1.497,6.506,4.102,4.37,8.944c-0.866,1.966-2.21,3.716-3.245,5.614
		c-1.192,2.186-2.544,4.334-3.371,6.66c-3.562,10.023,1.241,17.165,11.842,18.066c11.247,0.955,20.389-3.735,28.871-10.384
		c10.295-8.07,19.272-17.575,27.276-27.753c12.628-16.058,28.947-24.632,48.808-27.213c7.692-1,14.624-4.441,21.986-6.507
		c14.05-3.942,28.271-6.298,42.878-5.941c6.885,0.168,13.249-0.928,19.822-3.607c16.51-6.729,33.778-6.703,51.099-3.218
		c13.55,2.726,26.942,6.122,40.383,9.303c7.606,1.8,15.939,1.155,23.704-0.535c14.996-3.263,30.005-6.308,45.383-6.591
		c10.06-0.185,19.907,1.457,29.175,5.709C418.948,13.171,418.954,13.159,417.005,19.557"/>
</g>
</symbol></svg>