<?xml version="1.0" encoding="utf-8"?>
<!-- Generator: Adobe Illustrator 16.0.0, SVG Export Plug-In . SVG Version: 6.00 Build 0)  -->
<!DOCTYPE svg PUBLIC "-//W3C//DTD SVG 1.1//EN" "http://www.w3.org/Graphics/SVG/1.1/DTD/svg11.dtd">
<svg version="1.1" xmlns="http://www.w3.org/2000/svg" xmlns:xlink="http://www.w3.org/1999/xlink" x="0px" y="0px"
	 width="367.603px" height="512px" viewBox="0 0 367.603 512" enable-background="new 0 0 367.603 512" xml:space="preserve">
<g>
	<defs>
		<rect width="367.603" height="512"/>
	</defs>
	<path d="M79.587,0h2c3.575,1.857,5.713,4.978,7.548,8.416c3.078,5.771,5.272,11.898,6.915,18.179
		c1.118,4.273,3.43,6.318,7.777,7.072c12.275,2.126,21.222,9.128,27.467,19.755c3.896,6.629,6.925,13.662,9.687,20.823
		c7.497,19.439,13.226,39.483,20.215,59.093c3.338,9.365,3.475,9.242,13.484,9.339c11.896,0.115,11.063-1.861,11.243,11.328
		c0.058,4.181-1.26,6.291-5.672,6.078c-1.367-0.065-3.423-0.69-3.939,1.138c-0.429,1.52,1.257,2.576,2.266,3.644
		c6.263,6.63,14.106,10.496,22.781,12.841c9.966,2.694,20.126,4.799,29.888,8.092c24.898,8.401,47.984,20.127,65.925,39.976
		c10.952,12.118,18.48,26.483,24.884,41.387c19.504,45.409,28.638,93.469,35.91,141.981c3.405,22.726,5.804,45.578,7.661,68.472
		c0.929,11.435,2.13,22.878,1.961,34.386h-175c-0.617-2.436,0.389-4.612,1.216-6.762c3.563-9.257,10.867-14.082,20.096-16.217
		c3.646-0.846,4.11-1.943,1.845-4.829c-3.847-4.897-6.374-10.535-8.354-16.392c-8.575-25.368-11.887-51.845-16.023-78.113
		c-3.158-20.053-7.873-39.457-18.26-57.152c-7.68-13.082-17.306-24.416-29.381-33.632c-4.363-3.329-4.501-3.33-5.248,2.322
		c-0.499,3.783-0.63,7.619-0.863,11.436c-1.517,24.955-1.382,49.898,0.906,74.801c1.784,19.418,2.492,38.813,0.804,58.292
		c-1.945,22.447-6.058,44.478-11.737,66.246h-70c1.698-11.578,11.05-21.248,22.271-23.441c6.739-1.317,13.274-0.43,19.786,1.067
		c3.141,0.723,4.453,0.156,4.718-3.427c2.079-28.071,0.659-55.974-5.048-83.499c-6.594-31.803-12.804-63.67-16.099-95.98
		c-1.368-13.422-5.43-25.474-11.943-37.093c-6.269-11.185-11.727-22.822-17.882-34.073c-4.878-8.917-5.806-17.929-2.179-27.394
		c1.429-3.73,2.784-7.51,4.526-11.095c5.021-10.336,10.35-20.523,15.302-30.891c2.561-5.361,2.033-5.933-3.725-6.057
		c-8.565-0.183-8.567-0.183-8.702-8.673c-0.019-1.166,0.029-2.333,0.006-3.499c-0.073-3.633,1.344-5.641,5.33-5.345
		c2.652,0.196,5.33,0.001,7.995,0.05c3.634,0.069,4.681-1.52,3.791-5.039c-3.043-12.035-14.596-21.902-26.973-23.414
		c-11.757-1.436-23.252,0.232-34.721,2.275c-3.408,0.608-5.285-0.138-6.572-3.376c-2.09-5.261-4.445-10.418-6.766-15.584
		c-0.97-2.157-1.047-4.05,0.488-6.043c16.688-21.67,34.874-41.698,59.711-54.397c2.606-1.332,4.051-3.033,4.662-5.941
		c1.576-7.497,3.417-14.938,6.657-21.947C73.922,5.502,75.883,2.061,79.587,0"/>
</g>
</svg>
