<!DOCTYPE svg PUBLIC "-//W3C//DTD SVG 1.1//EN" "http://www.w3.org/Graphics/SVG/1.1/DTD/svg11.dtd">
<svg version="1.1" xmlns="http://www.w3.org/2000/svg" xmlns:xlink="http://www.w3.org/1999/xlink" x="0px" y="0px"
	 width="454.054px" height="188.36px" viewBox="0 0 454.054 188.36" enable-background="new 0 0 454.054 188.36"
	 xml:space="preserve">
<g>
	<path d="M417.005,19.557c4.077-6.327,9.188-11.443,15.388-15.574c3.365-2.242,5.509-2.237,7.3,1.858
		c2.855,6.534,5.107,13.063,3.061,20.282c-0.74,2.612-0.202,4.851,1.422,7.026c1.893,2.533,3.574,5.224,5.324,7.861
		c4.281,6.452,6.023,13.25,3.126,20.828c-1.266,3.312-1.398,6.751-0.686,10.316c0.65,3.261,0.528,6.633-0.002,9.953
		c-0.867,5.433-3.678,9.236-9.153,10.676c-4.312,1.134-8.056,3.104-10.865,6.666c-0.729,0.924-1.659,1.639-2.896,1.806
		c-3.995,0.54-14.155-8.473-14.144-12.552c0.002-0.666,0.04-1.333,0.053-1.999c0.224-12.049-0.498-13.217-11.554-18.045
		c-2.325-1.016-4.54-2.163-6.132-4.165c-2.194-2.76-4.861-2.506-7.652-1.335c-2.825,1.186-4.692,3.026-4.316,6.478
		c0.883,8.118,1.223,16.267,1.184,24.435c-0.005,0.951,0.259,2.065,0.791,2.831c10.487,15.111,14.438,32.883,19.668,49.993
		c3.991,13.057,11.505,20.154,25.012,21.107c2.149,0.152,4.278,0.653,6.405,1.05c6.045,1.123,9.666,4.933,11.446,10.615
		c2.216,7.075,1.112,8.581-6.254,8.631c-7.331,0.05-14.664-0.038-21.994,0.059c-2.965,0.039-5.488-0.539-7.712-2.732
		c-3.262-3.215-7.537-4.858-11.642-6.678c-4.504-1.997-8.688-4.509-11.37-8.676c-3.752-5.83-8.855-10.356-13.633-15.217
		c-9.574-9.741-19.487-19.147-28.544-29.402c-6.519-7.381-10.788-15.581-10.705-25.617c0.026-3.151-0.79-4.468-4.024-2.881
		c-1.034,0.506-2.214,0.983-3.335,1.002c-9.535,0.152-14.198,5.844-17.576,14.059c-2.964,7.209-7.195,13.892-10.764,20.859
		c-2.378,4.639-3.92,9.538-3.914,14.834c0.007,7.913,1.868,10.754,9.33,13.419c4.625,1.65,9.073,3.38,11.603,8.021
		c2.858,5.243,2.018,6.858-3.849,6.918c-7.665,0.077-15.331-0.037-22.994,0.062c-2.981,0.04-4.987-0.993-6.443-3.702
		c-1.89-3.514-4.156-6.826-6.253-10.23c-3.477-5.648-4.889-11.419-2.534-18.063c2.047-5.774,1.123-11.963,0.271-17.844
		c-1.271-8.759,0.112-16.581,5.844-23.429c1.869-2.232,2.112-3.463-1.336-4.11c-14.006-2.631-27.245-7.57-40.059-13.717
		c-0.151-0.072-0.304-0.141-0.458-0.201c-10.817-4.155-12.899-3.225-15.938,7.673c-2.639,9.459-5.386,18.913-7.445,28.504
		c-2.276,10.602,0.384,20.846,3.79,30.857c1.323,3.887,5.283,3.722,8.319,4.614c6.649,1.949,12.375,4.763,15.279,11.644
		c2.257,5.347,1.964,6.07-3.69,6.117c-5.832,0.048-11.685-0.288-17.49,0.099c-5.523,0.37-9.644-1.744-14.149-4.754
		c-16.295-10.883-20.921-27.131-22.229-45.22c-0.812-11.231-6.732-19.999-13.919-28.124c-1.396-1.578-2.665-2.229-4.694-0.942
		c-7.095,4.502-15.086,6.986-22.871,9.936c-16.371,6.202-30.572,15.458-41.313,29.538c-3.907,5.121-6.6,10.801-7.554,17.205
		c-0.902,6.048,0.795,8.601,6.639,10.322c6.469,1.907,9.033,5.038,9.766,11.568c0.31,2.762-0.69,4.185-3.469,4.186
		c-9.163,0.005-18.327-0.024-27.49-0.056c-2.028-0.007-3.331-1.205-4.54-2.695c-4.376-5.394-6.429-11.642-6.607-18.477
		c-0.304-11.699,1.07-23.271,3.132-34.761c1.273-7.092,4.617-12.91,11.359-16.09c20.017-9.439,30.478-27.13,39.915-45.775
		c1.903-3.76,0.218-4.329-3.043-4.038c-9.794,0.876-18.185,5.221-26.025,10.729c-10.11,7.103-19.21,15.433-28.225,23.855
		c-9.871,9.221-21.08,15.629-34.916,16.6C10.66,109.189-1.086,95.688,0.079,73.235C0.476,65.585,3.05,58.508,8.3,52.736
		c4.049-4.451,8.971-6.884,15.197-5.081c5.174,1.497,6.506,4.102,4.37,8.944c-0.866,1.966-2.21,3.716-3.245,5.614
		c-1.192,2.186-2.544,4.334-3.371,6.66c-3.562,10.023,1.241,17.165,11.842,18.066c11.247,0.955,20.389-3.735,28.871-10.384
		c10.295-8.07,19.272-17.575,27.276-27.753c12.628-16.058,28.947-24.632,48.808-27.213c7.692-1,14.624-4.441,21.986-6.507
		c14.05-3.942,28.271-6.298,42.878-5.941c6.885,0.168,13.249-0.928,19.822-3.607c16.51-6.729,33.778-6.703,51.099-3.218
		c13.55,2.726,26.942,6.122,40.383,9.303c7.606,1.8,15.939,1.155,23.704-0.535c14.996-3.263,30.005-6.308,45.383-6.591
		c10.06-0.185,19.907,1.457,29.175,5.709C418.948,13.171,418.954,13.159,417.005,19.557"/>
</g>
</svg>
